<svg width="485" height="25" viewBox="0 0 485 25" fill="none" xmlns="http://www.w3.org/2000/svg">
<g clip-path="url(#clip0_6125_4336)">
<mask id="mask0_6125_4336" style="mask-type:alpha" maskUnits="userSpaceOnUse" x="153" y="2" width="20" height="21">
<path d="M173 2.5H153V22.5H173V2.5Z" fill="#D9D9D9"/>
</mask>
<g mask="url(#mask0_6125_4336)">
<path d="M162.269 13.7564L160.589 12.1207C160.508 12.0424 160.42 12.0032 160.326 12.0032C160.232 12.0032 160.144 12.0424 160.064 12.1207C159.983 12.1991 159.945 12.2868 159.95 12.3838C159.955 12.4808 159.993 12.5632 160.062 12.6309L161.82 14.3291C161.944 14.4573 162.09 14.5214 162.256 14.5214C162.422 14.5214 162.57 14.4573 162.702 14.3291L166.257 10.8728C166.328 10.8038 166.364 10.7216 166.364 10.6263C166.364 10.5311 166.328 10.4453 166.257 10.3691C166.186 10.3 166.101 10.2681 166.003 10.2735C165.904 10.2788 165.821 10.3107 165.753 10.3691L162.269 13.7564ZM163.166 19.9055C163.104 19.9055 163.047 19.9031 162.996 19.8985C162.944 19.8939 162.9 19.8823 162.863 19.8638C161.22 19.3072 159.859 18.2745 158.782 16.7658C157.705 15.257 157.166 13.5705 157.166 11.7062V8.09345C157.166 7.8374 157.243 7.6029 157.397 7.38992C157.55 7.17695 157.744 7.02435 157.979 6.93211L162.726 5.22165C162.88 5.16503 163.026 5.13672 163.166 5.13672C163.306 5.13672 163.452 5.16503 163.606 5.22165L168.353 6.93211C168.588 7.02435 168.782 7.17695 168.936 7.38992C169.089 7.6029 169.166 7.8374 169.166 8.09345V11.7062C169.166 13.5705 168.627 15.257 167.55 16.7658C166.473 18.2745 165.116 19.3072 163.48 19.8638C163.438 19.8802 163.333 19.894 163.166 19.9055Z" fill="#1C1B1F"/>
</g>
<path d="M178.119 18V7.81818H181.748C182.54 7.81818 183.196 7.96236 183.717 8.25071C184.237 8.53906 184.626 8.93347 184.885 9.43395C185.143 9.93111 185.273 10.4912 185.273 11.1143C185.273 11.7408 185.142 12.3042 184.88 12.8047C184.621 13.3018 184.23 13.6963 183.707 13.9879C183.186 14.2763 182.532 14.4205 181.743 14.4205H179.247V13.1179H181.604C182.104 13.1179 182.51 13.0317 182.822 12.8594C183.133 12.6837 183.362 12.4451 183.508 12.1435C183.654 11.8419 183.727 11.4988 183.727 11.1143C183.727 10.7299 183.654 10.3885 183.508 10.0902C183.362 9.7919 183.132 9.55824 182.817 9.3892C182.505 9.22017 182.094 9.13565 181.584 9.13565H179.655V18H178.119ZM189.108 18.169C188.624 18.169 188.187 18.0795 187.796 17.9006C187.405 17.7183 187.095 17.4548 186.866 17.1101C186.641 16.7654 186.528 16.3428 186.528 15.8423C186.528 15.4115 186.611 15.0568 186.777 14.7784C186.942 14.5 187.166 14.2796 187.448 14.1172C187.73 13.9548 188.044 13.8321 188.392 13.7493C188.74 13.6664 189.095 13.6035 189.456 13.5604C189.914 13.5073 190.285 13.4643 190.57 13.4311C190.855 13.3946 191.062 13.3366 191.191 13.2571C191.321 13.1776 191.385 13.0483 191.385 12.8693V12.8345C191.385 12.4003 191.263 12.0639 191.017 11.8253C190.775 11.5866 190.414 11.4673 189.934 11.4673C189.433 11.4673 189.039 11.5784 188.75 11.8004C188.465 12.0192 188.268 12.2628 188.159 12.5312L186.762 12.2131C186.927 11.7491 187.169 11.3745 187.488 11.0895C187.809 10.8011 188.179 10.5923 188.596 10.4631C189.014 10.3305 189.453 10.2642 189.914 10.2642C190.219 10.2642 190.542 10.3007 190.883 10.3736C191.228 10.4432 191.549 10.5724 191.848 10.7614C192.149 10.9503 192.396 11.2204 192.588 11.5717C192.781 11.9197 192.877 12.3722 192.877 12.929V18H191.425V16.956H191.365C191.269 17.1482 191.125 17.3371 190.933 17.5227C190.741 17.7083 190.494 17.8625 190.192 17.9851C189.891 18.1077 189.529 18.169 189.108 18.169ZM189.431 16.9759C189.842 16.9759 190.194 16.8946 190.485 16.7322C190.78 16.5698 191.004 16.3577 191.157 16.0959C191.312 15.8307 191.39 15.5473 191.39 15.2457V14.2614C191.337 14.3144 191.234 14.3641 191.082 14.4105C190.933 14.4536 190.762 14.4917 190.57 14.5249C190.378 14.5547 190.19 14.5829 190.008 14.6094C189.826 14.6326 189.673 14.6525 189.551 14.669C189.262 14.7055 188.999 14.7668 188.76 14.853C188.525 14.9392 188.336 15.0634 188.194 15.2259C188.054 15.3849 187.985 15.5971 187.985 15.8622C187.985 16.2301 188.121 16.5085 188.392 16.6974C188.664 16.883 189.011 16.9759 189.431 16.9759ZM195.523 20.8636C195.301 20.8636 195.099 20.8454 194.916 20.8089C194.734 20.7758 194.598 20.7393 194.509 20.6996L194.867 19.4815C195.138 19.5545 195.38 19.5859 195.593 19.576C195.805 19.5661 195.992 19.4865 196.154 19.3374C196.32 19.1882 196.466 18.9446 196.592 18.6065L196.776 18.0994L193.982 10.3636H195.573L197.507 16.2898H197.586L199.52 10.3636H201.116L197.969 19.0192C197.823 19.4169 197.637 19.7533 197.412 20.0284C197.187 20.3068 196.918 20.5156 196.607 20.6548C196.295 20.794 195.934 20.8636 195.523 20.8636ZM211.891 10.4929C211.838 10.0223 211.619 9.65767 211.234 9.39915C210.85 9.13731 210.366 9.00639 209.783 9.00639C209.365 9.00639 209.004 9.07268 208.699 9.20526C208.394 9.33452 208.157 9.51349 207.988 9.74219C207.822 9.96757 207.739 10.2244 207.739 10.5128C207.739 10.7547 207.796 10.9635 207.908 11.1392C208.024 11.3149 208.175 11.4624 208.361 11.5817C208.55 11.6977 208.752 11.7955 208.967 11.875C209.183 11.9512 209.39 12.0142 209.589 12.0639L210.583 12.3224C210.908 12.402 211.241 12.5097 211.582 12.6456C211.924 12.7815 212.24 12.9605 212.532 13.1825C212.824 13.4046 213.059 13.6797 213.238 14.0078C213.42 14.3359 213.511 14.7287 213.511 15.1861C213.511 15.7628 213.362 16.2749 213.064 16.7223C212.769 17.1697 212.34 17.5227 211.776 17.7812C211.216 18.0398 210.538 18.169 209.743 18.169C208.981 18.169 208.321 18.0481 207.764 17.8061C207.207 17.5642 206.772 17.2211 206.457 16.777C206.142 16.3295 205.968 15.7992 205.935 15.1861H207.476C207.506 15.554 207.625 15.8606 207.834 16.1058C208.046 16.3478 208.316 16.5284 208.644 16.6477C208.976 16.7637 209.339 16.8217 209.733 16.8217C210.167 16.8217 210.553 16.7538 210.891 16.6179C211.233 16.4787 211.501 16.2865 211.697 16.0412C211.892 15.7926 211.99 15.5026 211.99 15.1712C211.99 14.8696 211.904 14.6226 211.732 14.4304C211.563 14.2382 211.332 14.0791 211.04 13.9531C210.752 13.8272 210.426 13.7161 210.061 13.62L208.858 13.2919C208.043 13.0698 207.396 12.7434 206.919 12.3125C206.445 11.8816 206.208 11.3116 206.208 10.6023C206.208 10.0156 206.367 9.50355 206.685 9.06605C207.004 8.62855 207.434 8.28883 207.978 8.04688C208.522 7.80161 209.135 7.67898 209.817 7.67898C210.507 7.67898 211.115 7.79995 211.642 8.0419C212.172 8.28385 212.59 8.61695 212.895 9.04119C213.2 9.46212 213.359 9.94602 213.372 10.4929H211.891ZM217.45 18.169C216.966 18.169 216.529 18.0795 216.138 17.9006C215.747 17.7183 215.437 17.4548 215.208 17.1101C214.983 16.7654 214.87 16.3428 214.87 15.8423C214.87 15.4115 214.953 15.0568 215.118 14.7784C215.284 14.5 215.508 14.2796 215.79 14.1172C216.071 13.9548 216.386 13.8321 216.734 13.7493C217.082 13.6664 217.437 13.6035 217.798 13.5604C218.256 13.5073 218.627 13.4643 218.912 13.4311C219.197 13.3946 219.404 13.3366 219.533 13.2571C219.662 13.1776 219.727 13.0483 219.727 12.8693V12.8345C219.727 12.4003 219.604 12.0639 219.359 11.8253C219.117 11.5866 218.756 11.4673 218.275 11.4673C217.775 11.4673 217.381 11.5784 217.092 11.8004C216.807 12.0192 216.61 12.2628 216.501 12.5312L215.104 12.2131C215.269 11.7491 215.511 11.3745 215.829 11.0895C216.151 10.8011 216.52 10.5923 216.938 10.4631C217.356 10.3305 217.795 10.2642 218.256 10.2642C218.56 10.2642 218.884 10.3007 219.225 10.3736C219.57 10.4432 219.891 10.5724 220.189 10.7614C220.491 10.9503 220.738 11.2204 220.93 11.5717C221.122 11.9197 221.219 12.3722 221.219 12.929V18H219.767V16.956H219.707C219.611 17.1482 219.467 17.3371 219.275 17.5227C219.082 17.7083 218.836 17.8625 218.534 17.9851C218.232 18.1077 217.871 18.169 217.45 18.169ZM217.773 16.9759C218.184 16.9759 218.536 16.8946 218.827 16.7322C219.122 16.5698 219.346 16.3577 219.498 16.0959C219.654 15.8307 219.732 15.5473 219.732 15.2457V14.2614C219.679 14.3144 219.576 14.3641 219.424 14.4105C219.275 14.4536 219.104 14.4917 218.912 14.5249C218.72 14.5547 218.532 14.5829 218.35 14.6094C218.168 14.6326 218.015 14.6525 217.893 14.669C217.604 14.7055 217.341 14.7668 217.102 14.853C216.867 14.9392 216.678 15.0634 216.535 15.2259C216.396 15.3849 216.327 15.5971 216.327 15.8622C216.327 16.2301 216.462 16.5085 216.734 16.6974C217.006 16.883 217.352 16.9759 217.773 16.9759ZM226.833 10.3636V11.5568H222.517V10.3636H226.833ZM223.701 18V9.47869C223.701 9.00142 223.805 8.60535 224.014 8.29048C224.223 7.9723 224.499 7.73532 224.844 7.57955C225.189 7.42045 225.563 7.34091 225.968 7.34091C226.266 7.34091 226.521 7.36577 226.733 7.41548C226.945 7.46188 227.103 7.50497 227.206 7.54474L226.858 8.74787C226.788 8.72798 226.699 8.70478 226.589 8.67827C226.48 8.64844 226.347 8.63352 226.191 8.63352C225.83 8.63352 225.572 8.72301 225.416 8.90199C225.263 9.08097 225.187 9.33949 225.187 9.67756V18H223.701ZM231.357 18.1541C230.605 18.1541 229.957 17.9934 229.413 17.6719C228.873 17.3471 228.455 16.8913 228.16 16.3047C227.868 15.7147 227.723 15.0237 227.723 14.2315C227.723 13.4493 227.868 12.7599 228.16 12.1634C228.455 11.5668 228.866 11.1011 229.393 10.7663C229.923 10.4316 230.543 10.2642 231.252 10.2642C231.683 10.2642 232.101 10.3355 232.505 10.478C232.91 10.6205 233.273 10.8442 233.594 11.1491C233.916 11.4541 234.169 11.8501 234.355 12.3374C234.54 12.8213 234.633 13.4096 234.633 14.1023V14.6293H228.563V13.5156H233.176C233.176 13.1245 233.097 12.7782 232.938 12.4766C232.779 12.1716 232.555 11.9313 232.267 11.7557C231.982 11.58 231.647 11.4922 231.262 11.4922C230.845 11.4922 230.48 11.5949 230.169 11.8004C229.86 12.0026 229.622 12.2678 229.453 12.5959C229.287 12.9207 229.204 13.2737 229.204 13.6548V14.5249C229.204 15.0353 229.294 15.4695 229.473 15.8274C229.655 16.1854 229.908 16.4588 230.233 16.6477C230.558 16.8333 230.938 16.9261 231.372 16.9261C231.654 16.9261 231.91 16.8864 232.142 16.8068C232.374 16.724 232.575 16.6013 232.744 16.4389C232.913 16.2765 233.042 16.076 233.132 15.8374L234.539 16.0909C234.426 16.5052 234.224 16.8681 233.932 17.1797C233.644 17.4879 233.281 17.7282 232.843 17.9006C232.409 18.0696 231.914 18.1541 231.357 18.1541ZM237.769 7.81818V18H236.282V7.81818H237.769ZM240.708 20.8636C240.486 20.8636 240.284 20.8454 240.102 20.8089C239.92 20.7758 239.784 20.7393 239.694 20.6996L240.052 19.4815C240.324 19.5545 240.566 19.5859 240.778 19.576C240.99 19.5661 241.177 19.4865 241.34 19.3374C241.506 19.1882 241.651 18.9446 241.777 18.6065L241.961 18.0994L239.167 10.3636H240.758L242.692 16.2898H242.772L244.706 10.3636H246.301L243.154 19.0192C243.009 19.4169 242.823 19.7533 242.598 20.0284C242.372 20.3068 242.104 20.5156 241.792 20.6548C241.481 20.794 241.119 20.8636 240.708 20.8636Z" fill="#111111"/>
</g>
<g clip-path="url(#clip1_6125_4336)">
<mask id="mask1_6125_4336" style="mask-type:luminance" maskUnits="userSpaceOnUse" x="267" y="4" width="65" height="16">
<path d="M331.891 4.36353H267.621V19.6363H331.891V4.36353Z" fill="white"/>
</mask>
<g mask="url(#mask1_6125_4336)">
<path d="M279.308 5.36495C278.556 4.58485 277.2 4.25073 275.466 4.25073H270.433C270.261 4.25095 270.095 4.30689 269.964 4.40855C269.834 4.51022 269.747 4.65095 269.72 4.80554L267.619 16.9286C267.609 16.9852 267.612 17.0432 267.629 17.0986C267.645 17.1539 267.675 17.2053 267.716 17.249C267.756 17.2928 267.807 17.328 267.864 17.3521C267.921 17.3762 267.983 17.3885 268.046 17.3884H271.155L271.94 12.8626L271.917 13.0036C271.943 12.8494 272.029 12.7089 272.159 12.6074C272.289 12.506 272.455 12.4503 272.626 12.4503H274.101C277.004 12.4503 279.274 11.3775 279.938 8.26622C279.958 8.17426 279.975 8.08537 279.99 7.99801C280.187 6.84854 279.99 6.06689 279.308 5.35882" fill="#8A9099"/>
<path d="M317.353 11.134C317.163 12.2712 316.21 12.2712 315.29 12.2712H314.765L315.133 10.147C315.144 10.0848 315.178 10.0282 315.231 9.98742C315.283 9.94662 315.35 9.92438 315.419 9.92475H315.659C316.286 9.92475 316.879 9.92474 317.185 10.2497C317.367 10.4443 317.422 10.734 317.353 11.134ZM316.952 8.16528H313.478C313.363 8.16514 313.251 8.20261 313.164 8.27093C313.076 8.33924 313.018 8.43388 313.001 8.53771L311.596 16.6607C311.589 16.6984 311.591 16.7371 311.602 16.774C311.614 16.8109 311.633 16.8451 311.661 16.8743C311.688 16.9034 311.722 16.9268 311.76 16.9429C311.798 16.959 311.839 16.9672 311.881 16.9671H313.668C313.749 16.9681 313.827 16.9423 313.889 16.8948C313.951 16.8472 313.991 16.781 314.004 16.7082L314.404 14.4092C314.422 14.3058 314.479 14.2115 314.566 14.1435C314.654 14.0755 314.765 14.0382 314.879 14.0383H315.98C318.269 14.0383 319.59 13.0268 319.935 11.0252C320.091 10.15 319.935 9.46189 319.493 8.97911C318.997 8.45035 318.121 8.16988 316.958 8.16988" fill="#179BD7"/>
<path d="M292.566 11.1336C292.376 12.2707 291.423 12.2707 290.502 12.2707H289.971L290.339 10.1466C290.35 10.0844 290.385 10.0278 290.437 9.987C290.489 9.9462 290.556 9.92396 290.625 9.92432H290.865C291.492 9.92432 292.085 9.92432 292.391 10.2492C292.575 10.4439 292.628 10.7335 292.559 11.1336H292.566ZM292.159 8.16486H288.691C288.576 8.16472 288.464 8.2022 288.377 8.27051C288.289 8.33882 288.231 8.43346 288.213 8.53729L286.809 16.6602C286.802 16.698 286.804 16.7367 286.815 16.7736C286.826 16.8105 286.846 16.8447 286.874 16.8739C286.901 16.903 286.934 16.9265 286.973 16.9425C287.011 16.9585 287.052 16.9668 287.094 16.9667H288.753C288.868 16.967 288.979 16.9297 289.067 16.8617C289.154 16.7937 289.212 16.6994 289.23 16.5958L289.61 14.4027C289.628 14.299 289.686 14.2045 289.773 14.1365C289.861 14.0684 289.972 14.0313 290.087 14.0318H291.186C293.475 14.0318 294.796 13.0202 295.141 11.0186C295.297 10.1435 295.141 9.45534 294.699 8.97256C294.205 8.4438 293.329 8.16333 292.166 8.16333" fill="#253B80"/>
<path d="M300.233 14.0505C300.169 14.4601 299.943 14.8342 299.597 15.1015C299.251 15.3688 298.809 15.5108 298.355 15.5003C298.147 15.5198 297.937 15.4928 297.743 15.4218C297.549 15.3507 297.377 15.2377 297.241 15.0926C297.106 14.9473 297.011 14.7742 296.965 14.5882C296.919 14.4021 296.923 14.2086 296.977 14.0244C297.04 13.616 297.264 13.2424 297.607 12.9736C297.95 12.7048 298.389 12.5591 298.841 12.5638C299.048 12.5539 299.255 12.5858 299.447 12.6574C299.638 12.7289 299.81 12.8383 299.95 12.9776C300.081 13.1267 300.173 13.3 300.222 13.4854C300.271 13.6708 300.275 13.8638 300.233 14.0505ZM302.552 11.0971H300.895C300.826 11.0968 300.759 11.119 300.707 11.1598C300.654 11.2006 300.619 11.2572 300.609 11.3194L300.535 11.7439L300.419 11.5907C300.059 11.114 299.256 10.9546 298.453 10.9546C296.614 10.9546 295.045 12.2251 294.739 14.0061C294.581 14.8965 294.806 15.7456 295.359 16.3387C295.863 16.8828 296.591 17.105 297.455 17.105C297.883 17.1087 298.307 17.0339 298.703 16.8848C299.099 16.7358 299.458 16.5157 299.759 16.2376L299.683 16.659C299.676 16.6969 299.679 16.7356 299.69 16.7725C299.702 16.8094 299.722 16.8436 299.749 16.8727C299.777 16.9019 299.81 16.9252 299.849 16.9413C299.887 16.9573 299.928 16.9656 299.97 16.9656H301.468C301.583 16.9658 301.694 16.9285 301.782 16.8605C301.869 16.7925 301.927 16.6982 301.945 16.5947L302.846 11.399C302.852 11.3612 302.85 11.3224 302.838 11.2856C302.827 11.2487 302.807 11.2145 302.78 11.1854C302.752 11.1562 302.718 11.1328 302.68 11.1168C302.642 11.1008 302.601 11.0925 302.559 11.0925" fill="#253B80"/>
<path d="M325.021 14.0505C324.958 14.4604 324.731 14.8347 324.385 15.102C324.038 15.3694 323.596 15.5112 323.142 15.5003C322.934 15.5194 322.724 15.4922 322.531 15.4211C322.337 15.3499 322.165 15.2369 322.029 15.0918C321.894 14.9467 321.799 14.7737 321.753 14.5878C321.707 14.4019 321.71 14.2086 321.764 14.0244C321.828 13.6158 322.052 13.2422 322.395 12.9734C322.738 12.7046 323.177 12.559 323.63 12.5638C323.837 12.5541 324.043 12.5861 324.235 12.6576C324.427 12.7292 324.599 12.8384 324.739 12.9776C324.869 13.1267 324.962 13.3 325.011 13.4854C325.06 13.6708 325.063 13.8638 325.021 14.0505ZM327.34 11.0971H325.677C325.608 11.0968 325.541 11.119 325.488 11.1598C325.436 11.2006 325.401 11.2572 325.391 11.3194L325.317 11.7439L325.201 11.5907C324.84 11.114 324.036 10.9546 323.235 10.9546C321.396 10.9546 319.827 12.2251 319.521 14.0061C319.361 14.8965 319.588 15.7456 320.141 16.3387C320.645 16.8828 321.373 17.105 322.236 17.105C322.665 17.1091 323.089 17.0344 323.485 16.8854C323.88 16.7363 324.239 16.516 324.539 16.2376L324.465 16.659C324.458 16.6969 324.461 16.7356 324.472 16.7725C324.484 16.8094 324.504 16.8436 324.531 16.8727C324.558 16.9019 324.592 16.9252 324.631 16.9413C324.669 16.9573 324.71 16.9656 324.752 16.9656H326.25C326.365 16.9658 326.476 16.9285 326.563 16.8605C326.651 16.7925 326.709 16.6982 326.727 16.5947L327.626 11.399C327.633 11.3613 327.631 11.3226 327.619 11.2857C327.608 11.2488 327.588 11.2146 327.561 11.1854C327.534 11.1562 327.5 11.1328 327.462 11.1168C327.424 11.1007 327.382 11.0925 327.34 11.0925" fill="#179BD7"/>
<path d="M311.415 11.0969H309.735C309.656 11.097 309.578 11.1146 309.508 11.1482C309.439 11.1819 309.379 11.2306 309.335 11.29L307.036 14.3951L306.058 11.4172C306.028 11.3264 305.967 11.2466 305.884 11.19C305.801 11.1333 305.699 11.1028 305.595 11.1031H303.952C303.906 11.103 303.86 11.1129 303.819 11.1321C303.778 11.1513 303.743 11.1792 303.716 11.2134C303.689 11.2476 303.672 11.2871 303.665 11.3287C303.658 11.3703 303.663 11.4128 303.678 11.4525L305.518 16.383L303.787 18.6114C303.756 18.6508 303.738 18.6972 303.734 18.7456C303.73 18.7939 303.741 18.8422 303.765 18.8853C303.79 18.9283 303.826 18.9645 303.872 18.9897C303.917 19.015 303.969 19.0283 304.022 19.0283H305.695C305.772 19.0283 305.849 19.0111 305.918 18.9783C305.987 18.9455 306.047 18.8979 306.091 18.8398L311.65 11.5123C311.68 11.4725 311.698 11.4261 311.701 11.3779C311.704 11.3298 311.693 11.2817 311.668 11.239C311.644 11.1963 311.607 11.1605 311.562 11.1354C311.517 11.1104 311.465 11.0971 311.412 11.0969" fill="#253B80"/>
<path d="M329.298 8.38878L327.873 16.665C327.866 16.7027 327.868 16.7414 327.88 16.7783C327.891 16.8153 327.911 16.8494 327.938 16.8786C327.965 16.9078 327.999 16.9312 328.037 16.9473C328.075 16.9633 328.117 16.9715 328.159 16.9715H329.592C329.707 16.9717 329.818 16.9345 329.906 16.8665C329.993 16.7985 330.051 16.7041 330.07 16.6006L331.476 8.47767C331.483 8.4398 331.48 8.40109 331.469 8.3642C331.457 8.32731 331.437 8.29312 331.41 8.26399C331.383 8.23484 331.349 8.21146 331.311 8.19543C331.272 8.1794 331.231 8.17112 331.189 8.17114H329.584C329.515 8.17115 329.448 8.19372 329.395 8.23477C329.343 8.27582 329.309 8.33263 329.298 8.39491" fill="#179BD7"/>
<path d="M279.308 5.36495C278.556 4.58485 277.2 4.25073 275.466 4.25073H270.433C270.261 4.25095 270.095 4.30689 269.964 4.40855C269.834 4.51022 269.747 4.65095 269.72 4.80554L267.619 16.9286C267.609 16.9852 267.612 17.0432 267.629 17.0986C267.645 17.1539 267.675 17.2053 267.716 17.249C267.756 17.2928 267.807 17.328 267.864 17.3521C267.921 17.3762 267.983 17.3885 268.046 17.3884H271.155L271.94 12.8626L271.917 13.0036C271.943 12.8494 272.029 12.7089 272.159 12.6074C272.289 12.506 272.455 12.4503 272.626 12.4503H274.101C277.004 12.4503 279.274 11.3775 279.938 8.26622C279.958 8.17426 279.975 8.08537 279.99 7.99801C280.187 6.84854 279.99 6.06689 279.308 5.35882" fill="#8A9099"/>
<path d="M272.779 8.01946C272.795 7.92727 272.835 7.83998 272.896 7.76519C272.957 7.69041 273.038 7.63038 273.13 7.59033C273.214 7.55287 273.307 7.53347 273.401 7.53362H277.348C277.784 7.53092 278.218 7.55961 278.649 7.61945C278.763 7.63631 278.874 7.65623 278.985 7.67769C279.096 7.69914 279.197 7.72367 279.298 7.75125L279.447 7.79263C279.635 7.84923 279.818 7.91998 279.993 8.00414C280.19 6.85467 279.993 6.07303 279.311 5.36495C278.56 4.58485 277.205 4.25073 275.469 4.25073H270.433C270.261 4.25095 270.095 4.30689 269.964 4.40855C269.834 4.51022 269.747 4.65095 269.72 4.80554L267.619 16.9271C267.609 16.9837 267.612 17.0417 267.629 17.097C267.645 17.1524 267.675 17.2037 267.716 17.2475C267.756 17.2913 267.807 17.3265 267.864 17.3506C267.921 17.3746 267.983 17.387 268.046 17.3869H271.155L271.94 12.8626L272.779 8.01946Z" fill="#253B80"/>
<path d="M279.991 8.00439C279.976 8.09175 279.959 8.18065 279.939 8.27261C279.267 11.3808 277.005 12.4567 274.102 12.4567H272.625C272.453 12.4569 272.287 12.5135 272.157 12.6163C272.027 12.719 271.942 12.8609 271.918 13.0161L271.161 17.3902L270.946 18.6301C270.938 18.6793 270.941 18.7297 270.955 18.7777C270.97 18.8257 270.996 18.8703 271.032 18.9082C271.067 18.9462 271.111 18.9766 271.161 18.9974C271.211 19.0181 271.265 19.0288 271.319 19.0286H273.939C274.089 19.0285 274.234 18.9796 274.348 18.8909C274.462 18.8022 274.538 18.6793 274.561 18.5443L274.586 18.4217L275.08 15.5679L275.112 15.4147C275.136 15.2797 275.212 15.1568 275.325 15.0681C275.439 14.9793 275.584 14.9305 275.734 14.9303H276.127C278.665 14.9303 280.652 13.9893 281.233 11.2704C281.475 10.1347 281.349 9.18605 280.709 8.51935C280.505 8.31263 280.262 8.14172 279.991 8.01512" fill="#179BD7"/>
<path d="M279.295 7.75125C279.195 7.72367 279.09 7.69914 278.983 7.67769C278.875 7.65623 278.764 7.63631 278.647 7.61945C278.216 7.55961 277.781 7.53092 277.346 7.53362H273.402C273.308 7.53347 273.215 7.55287 273.131 7.59033C273.039 7.63038 272.958 7.69041 272.897 7.76519C272.836 7.83998 272.796 7.92727 272.78 8.01946L271.94 12.8687L271.916 13.0097C271.942 12.8556 272.028 12.7152 272.158 12.6137C272.287 12.5122 272.453 12.4564 272.624 12.4564H274.101C277.003 12.4564 279.273 11.3836 279.937 8.27235C279.958 8.18039 279.974 8.0915 279.989 8.00414C279.814 7.91985 279.632 7.84959 279.443 7.79417L279.294 7.75125" fill="#222D65"/>
</g>
</g>
<defs>
<clipPath id="clip0_6125_4336">
<rect width="94" height="25" fill="white" transform="translate(153)"/>
</clipPath>
<clipPath id="clip1_6125_4336">
<rect width="65" height="16" fill="white" transform="translate(267 4.5)"/>
</clipPath>
</defs>
</svg>
