<svg width="485" height="25" viewBox="0 0 485 25" fill="none" xmlns="http://www.w3.org/2000/svg">
<g clip-path="url(#clip0_6105_5839)">
<mask id="mask0_6105_5839" style="mask-type:alpha" maskUnits="userSpaceOnUse" x="63" y="2" width="21" height="21">
<path d="M83.0371 2.5H63.0371V22.5H83.0371V2.5Z" fill="#D9D9D9"/>
</mask>
<g mask="url(#mask0_6105_5839)">
<path d="M72.3064 13.7564L70.6257 12.1207C70.5451 12.0424 70.4576 12.0032 70.3633 12.0032C70.269 12.0032 70.1815 12.0424 70.1009 12.1207C70.0204 12.1991 69.9825 12.2868 69.9875 12.3838C69.9924 12.4808 70.0297 12.5632 70.0993 12.6309L71.857 14.3291C71.9815 14.4573 72.1268 14.5214 72.2927 14.5214C72.4586 14.5214 72.6075 14.4573 72.7394 14.3291L76.2943 10.8728C76.3654 10.8038 76.4009 10.7216 76.4009 10.6263C76.4009 10.5311 76.3654 10.4453 76.2943 10.3691C76.2233 10.3 76.1384 10.2681 76.0397 10.2735C75.941 10.2788 75.8579 10.3107 75.7905 10.3691L72.3064 13.7564ZM73.2031 19.9055C73.1412 19.9055 73.0845 19.9031 73.0328 19.8985C72.9811 19.8939 72.937 19.8823 72.9004 19.8638C71.2568 19.3072 69.8964 18.2745 68.819 16.7658C67.7418 15.257 67.2031 13.5705 67.2031 11.7062V8.09345C67.2031 7.8374 67.28 7.6029 67.4336 7.38992C67.5873 7.17695 67.7815 7.02435 68.0163 6.93211L72.7636 5.22165C72.9167 5.16503 73.0632 5.13672 73.2031 5.13672C73.3431 5.13672 73.4896 5.16503 73.6427 5.22165L78.3899 6.93211C78.6247 7.02435 78.819 7.17695 78.9726 7.38992C79.1263 7.6029 79.2031 7.8374 79.2031 8.09345V11.7062C79.2031 13.5705 78.6645 15.257 77.5872 16.7658C76.5099 18.2745 75.1531 19.3072 73.5169 19.8638C73.4747 19.8802 73.3702 19.894 73.2031 19.9055Z" fill="#1C1B1F"/>
</g>
<path d="M88.1557 18V7.81818H91.785C92.5771 7.81818 93.2334 7.96236 93.7537 8.25071C94.2741 8.53906 94.6635 8.93347 94.9221 9.43395C95.1806 9.93111 95.3098 10.4912 95.3098 11.1143C95.3098 11.7408 95.1789 12.3042 94.9171 12.8047C94.6586 13.3018 94.2675 13.6963 93.7438 13.9879C93.2234 14.2763 92.5688 14.4205 91.78 14.4205H89.2843V13.1179H91.6408C92.1413 13.1179 92.5473 13.0317 92.8588 12.8594C93.1704 12.6837 93.3991 12.4451 93.5449 12.1435C93.6908 11.8419 93.7637 11.4988 93.7637 11.1143C93.7637 10.7299 93.6908 10.3885 93.5449 10.0902C93.3991 9.7919 93.1687 9.55824 92.8539 9.3892C92.5423 9.22017 92.1313 9.13565 91.6209 9.13565H89.6919V18H88.1557ZM99.1454 18.169C98.6615 18.169 98.224 18.0795 97.8329 17.9006C97.4418 17.7183 97.1319 17.4548 96.9032 17.1101C96.6779 16.7654 96.5652 16.3428 96.5652 15.8423C96.5652 15.4115 96.648 15.0568 96.8137 14.7784C96.9795 14.5 97.2032 14.2796 97.4849 14.1172C97.7666 13.9548 98.0815 13.8321 98.4295 13.7493C98.7775 13.6664 99.1322 13.6035 99.4934 13.5604C99.9508 13.5073 100.322 13.4643 100.607 13.4311C100.892 13.3946 101.099 13.3366 101.229 13.2571C101.358 13.1776 101.422 13.0483 101.422 12.8693V12.8345C101.422 12.4003 101.3 12.0639 101.055 11.8253C100.813 11.5866 100.451 11.4673 99.9707 11.4673C99.4702 11.4673 99.0758 11.5784 98.7875 11.8004C98.5024 12.0192 98.3052 12.2628 98.1958 12.5312L96.7988 12.2131C96.9645 11.7491 97.2065 11.3745 97.5247 11.0895C97.8462 10.8011 98.2157 10.5923 98.6333 10.4631C99.051 10.3305 99.4901 10.2642 99.9508 10.2642C100.256 10.2642 100.579 10.3007 100.92 10.3736C101.265 10.4432 101.586 10.5724 101.885 10.7614C102.186 10.9503 102.433 11.2204 102.626 11.5717C102.818 11.9197 102.914 12.3722 102.914 12.929V18H101.462V16.956H101.403C101.306 17.1482 101.162 17.3371 100.97 17.5227C100.778 17.7083 100.531 17.8625 100.229 17.9851C99.9276 18.1077 99.5663 18.169 99.1454 18.169ZM99.4686 16.9759C99.8796 16.9759 100.231 16.8946 100.523 16.7322C100.818 16.5698 101.041 16.3577 101.194 16.0959C101.349 15.8307 101.427 15.5473 101.427 15.2457V14.2614C101.374 14.3144 101.272 14.3641 101.119 14.4105C100.97 14.4536 100.799 14.4917 100.607 14.5249C100.415 14.5547 100.228 14.5829 100.045 14.6094C99.863 14.6326 99.7105 14.6525 99.5879 14.669C99.2995 14.7055 99.036 14.7668 98.7974 14.853C98.5621 14.9392 98.3732 15.0634 98.2306 15.2259C98.0914 15.3849 98.0218 15.5971 98.0218 15.8622C98.0218 16.2301 98.1577 16.5085 98.4295 16.6974C98.7013 16.883 99.0476 16.9759 99.4686 16.9759ZM105.56 20.8636C105.338 20.8636 105.136 20.8454 104.953 20.8089C104.771 20.7758 104.635 20.7393 104.546 20.6996L104.904 19.4815C105.176 19.5545 105.417 19.5859 105.63 19.576C105.842 19.5661 106.029 19.4865 106.191 19.3374C106.357 19.1882 106.503 18.9446 106.629 18.6065L106.813 18.0994L104.019 10.3636H105.61L107.544 16.2898H107.623L109.557 10.3636H111.153L108.006 19.0192C107.86 19.4169 107.675 19.7533 107.449 20.0284C107.224 20.3068 106.955 20.5156 106.644 20.6548C106.332 20.794 105.971 20.8636 105.56 20.8636ZM121.928 10.4929C121.875 10.0223 121.656 9.65767 121.271 9.39915C120.887 9.13731 120.403 9.00639 119.82 9.00639C119.402 9.00639 119.041 9.07268 118.736 9.20526C118.431 9.33452 118.194 9.51349 118.025 9.74219C117.859 9.96757 117.776 10.2244 117.776 10.5128C117.776 10.7547 117.833 10.9635 117.945 11.1392C118.061 11.3149 118.212 11.4624 118.398 11.5817C118.587 11.6977 118.789 11.7955 119.004 11.875C119.22 11.9512 119.427 12.0142 119.626 12.0639L120.62 12.3224C120.945 12.402 121.278 12.5097 121.619 12.6456C121.961 12.7815 122.277 12.9605 122.569 13.1825C122.861 13.4046 123.096 13.6797 123.275 14.0078C123.457 14.3359 123.548 14.7287 123.548 15.1861C123.548 15.7628 123.399 16.2749 123.101 16.7223C122.806 17.1697 122.377 17.5227 121.813 17.7812C121.253 18.0398 120.575 18.169 119.78 18.169C119.018 18.169 118.358 18.0481 117.801 17.8061C117.244 17.5642 116.809 17.2211 116.494 16.777C116.179 16.3295 116.005 15.7992 115.972 15.1861H117.513C117.543 15.554 117.662 15.8606 117.871 16.1058C118.083 16.3478 118.353 16.5284 118.681 16.6477C119.013 16.7637 119.376 16.8217 119.77 16.8217C120.204 16.8217 120.59 16.7538 120.928 16.6179C121.27 16.4787 121.538 16.2865 121.734 16.0412C121.929 15.7926 122.027 15.5026 122.027 15.1712C122.027 14.8696 121.941 14.6226 121.769 14.4304C121.6 14.2382 121.369 14.0791 121.078 13.9531C120.789 13.8272 120.463 13.7161 120.098 13.62L118.895 13.2919C118.08 13.0698 117.433 12.7434 116.956 12.3125C116.482 11.8816 116.245 11.3116 116.245 10.6023C116.245 10.0156 116.404 9.50355 116.722 9.06605C117.041 8.62855 117.472 8.28883 118.015 8.04688C118.559 7.80161 119.172 7.67898 119.855 7.67898C120.544 7.67898 121.152 7.79995 121.679 8.0419C122.209 8.28385 122.627 8.61695 122.932 9.04119C123.237 9.46212 123.396 9.94602 123.409 10.4929H121.928ZM127.487 18.169C127.003 18.169 126.566 18.0795 126.175 17.9006C125.784 17.7183 125.474 17.4548 125.245 17.1101C125.02 16.7654 124.907 16.3428 124.907 15.8423C124.907 15.4115 124.99 15.0568 125.156 14.7784C125.321 14.5 125.545 14.2796 125.827 14.1172C126.108 13.9548 126.423 13.8321 126.771 13.7493C127.119 13.6664 127.474 13.6035 127.835 13.5604C128.293 13.5073 128.664 13.4643 128.949 13.4311C129.234 13.3946 129.441 13.3366 129.57 13.2571C129.7 13.1776 129.764 13.0483 129.764 12.8693V12.8345C129.764 12.4003 129.642 12.0639 129.396 11.8253C129.154 11.5866 128.793 11.4673 128.312 11.4673C127.812 11.4673 127.418 11.5784 127.129 11.8004C126.844 12.0192 126.647 12.2628 126.538 12.5312L125.141 12.2131C125.306 11.7491 125.548 11.3745 125.866 11.0895C126.188 10.8011 126.558 10.5923 126.975 10.4631C127.393 10.3305 127.832 10.2642 128.293 10.2642C128.598 10.2642 128.921 10.3007 129.262 10.3736C129.607 10.4432 129.928 10.5724 130.227 10.7614C130.528 10.9503 130.775 11.2204 130.967 11.5717C131.16 11.9197 131.256 12.3722 131.256 12.929V18H129.804V16.956H129.744C129.648 17.1482 129.504 17.3371 129.312 17.5227C129.12 17.7083 128.873 17.8625 128.571 17.9851C128.269 18.1077 127.908 18.169 127.487 18.169ZM127.81 16.9759C128.221 16.9759 128.573 16.8946 128.864 16.7322C129.159 16.5698 129.383 16.3577 129.536 16.0959C129.691 15.8307 129.769 15.5473 129.769 15.2457V14.2614C129.716 14.3144 129.613 14.3641 129.461 14.4105C129.312 14.4536 129.141 14.4917 128.949 14.5249C128.757 14.5547 128.569 14.5829 128.387 14.6094C128.205 14.6326 128.052 14.6525 127.93 14.669C127.641 14.7055 127.378 14.7668 127.139 14.853C126.904 14.9392 126.715 15.0634 126.572 15.2259C126.433 15.3849 126.364 15.5971 126.364 15.8622C126.364 16.2301 126.5 16.5085 126.771 16.6974C127.043 16.883 127.389 16.9759 127.81 16.9759ZM136.87 10.3636V11.5568H132.555V10.3636H136.87ZM133.738 18V9.47869C133.738 9.00142 133.842 8.60535 134.051 8.29048C134.26 7.9723 134.537 7.73532 134.881 7.57955C135.226 7.42045 135.6 7.34091 136.005 7.34091C136.303 7.34091 136.558 7.36577 136.77 7.41548C136.983 7.46188 137.14 7.50497 137.243 7.54474L136.895 8.74787C136.825 8.72798 136.736 8.70478 136.626 8.67827C136.517 8.64844 136.384 8.63352 136.229 8.63352C135.867 8.63352 135.609 8.72301 135.453 8.90199C135.3 9.08097 135.224 9.33949 135.224 9.67756V18H133.738ZM141.394 18.1541C140.642 18.1541 139.994 17.9934 139.45 17.6719C138.91 17.3471 138.492 16.8913 138.197 16.3047C137.906 15.7147 137.76 15.0237 137.76 14.2315C137.76 13.4493 137.906 12.7599 138.197 12.1634C138.492 11.5668 138.903 11.1011 139.43 10.7663C139.961 10.4316 140.58 10.2642 141.29 10.2642C141.72 10.2642 142.138 10.3355 142.542 10.478C142.947 10.6205 143.31 10.8442 143.631 11.1491C143.953 11.4541 144.206 11.8501 144.392 12.3374C144.577 12.8213 144.67 13.4096 144.67 14.1023V14.6293H138.6V13.5156H143.214C143.214 13.1245 143.134 12.7782 142.975 12.4766C142.816 12.1716 142.592 11.9313 142.304 11.7557C142.019 11.58 141.684 11.4922 141.3 11.4922C140.882 11.4922 140.517 11.5949 140.206 11.8004C139.898 12.0026 139.659 12.2678 139.49 12.5959C139.324 12.9207 139.241 13.2737 139.241 13.6548V14.5249C139.241 15.0353 139.331 15.4695 139.51 15.8274C139.692 16.1854 139.946 16.4588 140.27 16.6477C140.595 16.8333 140.975 16.9261 141.409 16.9261C141.691 16.9261 141.948 16.8864 142.18 16.8068C142.412 16.724 142.612 16.6013 142.781 16.4389C142.95 16.2765 143.079 16.076 143.169 15.8374L144.576 16.0909C144.463 16.5052 144.261 16.8681 143.969 17.1797C143.681 17.4879 143.318 17.7282 142.881 17.9006C142.446 18.0696 141.951 18.1541 141.394 18.1541ZM147.806 7.81818V18H146.32V7.81818H147.806ZM150.746 20.8636C150.523 20.8636 150.321 20.8454 150.139 20.8089C149.957 20.7758 149.821 20.7393 149.731 20.6996L150.089 19.4815C150.361 19.5545 150.603 19.5859 150.815 19.576C151.027 19.5661 151.215 19.4865 151.377 19.3374C151.543 19.1882 151.689 18.9446 151.814 18.6065L151.998 18.0994L149.204 10.3636H150.795L152.729 16.2898H152.809L154.743 10.3636H156.339L153.192 19.0192C153.046 19.4169 152.86 19.7533 152.635 20.0284C152.409 20.3068 152.141 20.5156 151.829 20.6548C151.518 20.794 151.157 20.8636 150.746 20.8636Z" fill="#111111"/>
</g>
<g clip-path="url(#clip1_6105_5839)">
<mask id="mask1_6105_5839" style="mask-type:luminance" maskUnits="userSpaceOnUse" x="177" y="4" width="65" height="16">
<path d="M241.928 4.36353H177.658V19.6363H241.928V4.36353Z" fill="white"/>
</mask>
<g mask="url(#mask1_6105_5839)">
<path d="M189.345 5.36495C188.594 4.58485 187.237 4.25073 185.503 4.25073H180.47C180.298 4.25095 180.132 4.30689 180.002 4.40855C179.871 4.51022 179.784 4.65095 179.757 4.80554L177.656 16.9286C177.646 16.9852 177.649 17.0432 177.666 17.0986C177.682 17.1539 177.712 17.2053 177.753 17.249C177.793 17.2928 177.844 17.328 177.901 17.3521C177.958 17.3762 178.02 17.3885 178.083 17.3884H181.192L181.977 12.8626L181.954 13.0036C181.98 12.8494 182.066 12.7089 182.196 12.6074C182.326 12.506 182.492 12.4503 182.663 12.4503H184.138C187.041 12.4503 189.311 11.3775 189.975 8.26622C189.995 8.17426 190.012 8.08537 190.027 7.99801C190.224 6.84854 190.027 6.06689 189.345 5.35882" fill="#8A9099"/>
<path d="M227.39 11.134C227.2 12.2712 226.248 12.2712 225.327 12.2712H224.802L225.17 10.147C225.181 10.0848 225.215 10.0282 225.268 9.98742C225.32 9.94662 225.387 9.92438 225.456 9.92475H225.696C226.323 9.92475 226.916 9.92474 227.222 10.2497C227.404 10.4443 227.459 10.734 227.39 11.134ZM226.989 8.16528H223.515C223.4 8.16514 223.288 8.20261 223.201 8.27093C223.113 8.33924 223.055 8.43388 223.038 8.53771L221.633 16.6607C221.626 16.6984 221.628 16.7371 221.639 16.774C221.651 16.8109 221.67 16.8451 221.698 16.8743C221.725 16.9034 221.759 16.9268 221.797 16.9429C221.835 16.959 221.876 16.9672 221.918 16.9671H223.705C223.786 16.9681 223.864 16.9423 223.926 16.8948C223.988 16.8472 224.028 16.781 224.041 16.7082L224.441 14.4092C224.459 14.3058 224.516 14.2115 224.604 14.1435C224.691 14.0755 224.802 14.0382 224.917 14.0383H226.017C228.306 14.0383 229.627 13.0268 229.972 11.0252C230.128 10.15 229.972 9.46189 229.53 8.97911C229.034 8.45035 228.158 8.16988 226.995 8.16988" fill="#179BD7"/>
<path d="M202.603 11.1336C202.413 12.2707 201.46 12.2707 200.54 12.2707H200.008L200.377 10.1466C200.387 10.0844 200.422 10.0278 200.474 9.987C200.527 9.9462 200.593 9.92396 200.662 9.92432H200.903C201.529 9.92432 202.123 9.92432 202.428 10.2492C202.612 10.4439 202.665 10.7335 202.597 11.1336H202.603ZM202.197 8.16486H198.728C198.613 8.16472 198.501 8.2022 198.414 8.27051C198.326 8.33882 198.268 8.43346 198.251 8.53729L196.846 16.6602C196.839 16.698 196.841 16.7367 196.852 16.7736C196.864 16.8105 196.883 16.8447 196.911 16.8739C196.938 16.903 196.972 16.9265 197.01 16.9425C197.048 16.9585 197.089 16.9668 197.131 16.9667H198.79C198.905 16.967 199.016 16.9297 199.104 16.8617C199.191 16.7937 199.249 16.6994 199.267 16.5958L199.647 14.4027C199.665 14.299 199.723 14.2045 199.81 14.1365C199.898 14.0684 200.009 14.0313 200.124 14.0318H201.224C203.512 14.0318 204.833 13.0202 205.178 11.0186C205.334 10.1435 205.178 9.45534 204.736 8.97256C204.242 8.4438 203.366 8.16333 202.203 8.16333" fill="#253B80"/>
<path d="M210.27 14.0505C210.206 14.4601 209.98 14.8342 209.634 15.1015C209.288 15.3688 208.846 15.5108 208.392 15.5003C208.184 15.5198 207.974 15.4928 207.78 15.4218C207.586 15.3507 207.414 15.2377 207.278 15.0926C207.143 14.9473 207.048 14.7742 207.002 14.5882C206.956 14.4021 206.96 14.2086 207.014 14.0244C207.077 13.616 207.301 13.2424 207.644 12.9736C207.987 12.7048 208.426 12.5591 208.878 12.5638C209.085 12.5539 209.292 12.5858 209.484 12.6574C209.675 12.7289 209.847 12.8383 209.987 12.9776C210.118 13.1267 210.211 13.3 210.259 13.4854C210.308 13.6708 210.312 13.8638 210.27 14.0505ZM212.589 11.0971H210.932C210.863 11.0968 210.796 11.119 210.744 11.1598C210.691 11.2006 210.657 11.2572 210.646 11.3194L210.572 11.7439L210.456 11.5907C210.097 11.114 209.293 10.9546 208.49 10.9546C206.651 10.9546 205.082 12.2251 204.776 14.0061C204.618 14.8965 204.843 15.7456 205.396 16.3387C205.9 16.8828 206.628 17.105 207.492 17.105C207.92 17.1087 208.345 17.0339 208.74 16.8848C209.136 16.7358 209.495 16.5157 209.796 16.2376L209.72 16.659C209.714 16.6969 209.716 16.7356 209.728 16.7725C209.739 16.8094 209.759 16.8436 209.786 16.8727C209.814 16.9019 209.848 16.9252 209.886 16.9413C209.924 16.9573 209.965 16.9656 210.008 16.9656H211.505C211.62 16.9658 211.731 16.9285 211.819 16.8605C211.906 16.7925 211.964 16.6982 211.982 16.5947L212.883 11.399C212.89 11.3612 212.887 11.3224 212.876 11.2856C212.864 11.2487 212.844 11.2145 212.817 11.1854C212.789 11.1562 212.756 11.1328 212.717 11.1168C212.679 11.1008 212.638 11.0925 212.596 11.0925" fill="#253B80"/>
<path d="M235.058 14.0505C234.995 14.4604 234.768 14.8347 234.422 15.102C234.075 15.3694 233.633 15.5112 233.179 15.5003C232.971 15.5194 232.762 15.4922 232.568 15.4211C232.374 15.3499 232.202 15.2369 232.066 15.0918C231.931 14.9467 231.836 14.7737 231.79 14.5878C231.744 14.4019 231.748 14.2086 231.801 14.0244C231.865 13.6158 232.089 13.2422 232.432 12.9734C232.775 12.7046 233.214 12.559 233.667 12.5638C233.874 12.5541 234.08 12.5861 234.272 12.6576C234.464 12.7292 234.636 12.8384 234.776 12.9776C234.906 13.1267 234.999 13.3 235.048 13.4854C235.097 13.6708 235.1 13.8638 235.058 14.0505ZM237.377 11.0971H235.714C235.645 11.0968 235.578 11.119 235.526 11.1598C235.473 11.2006 235.438 11.2572 235.428 11.3194L235.354 11.7439L235.238 11.5907C234.877 11.114 234.073 10.9546 233.272 10.9546C231.433 10.9546 229.864 12.2251 229.558 14.0061C229.398 14.8965 229.625 15.7456 230.178 16.3387C230.682 16.8828 231.41 17.105 232.274 17.105C232.702 17.1091 233.126 17.0344 233.522 16.8854C233.917 16.7363 234.276 16.516 234.576 16.2376L234.502 16.659C234.495 16.6969 234.498 16.7356 234.509 16.7725C234.521 16.8094 234.541 16.8436 234.568 16.8727C234.596 16.9019 234.629 16.9252 234.668 16.9413C234.706 16.9573 234.747 16.9656 234.789 16.9656H236.287C236.402 16.9658 236.513 16.9285 236.601 16.8605C236.688 16.7925 236.746 16.6982 236.764 16.5947L237.663 11.399C237.67 11.3613 237.668 11.3226 237.657 11.2857C237.645 11.2488 237.625 11.2146 237.598 11.1854C237.571 11.1562 237.537 11.1328 237.499 11.1168C237.461 11.1007 237.419 11.0925 237.377 11.0925" fill="#179BD7"/>
<path d="M221.452 11.0969H219.772C219.693 11.097 219.615 11.1146 219.545 11.1482C219.476 11.1819 219.416 11.2306 219.372 11.29L217.073 14.3951L216.095 11.4172C216.065 11.3264 216.004 11.2466 215.921 11.19C215.838 11.1333 215.736 11.1028 215.633 11.1031H213.989C213.943 11.103 213.897 11.1129 213.856 11.1321C213.815 11.1513 213.78 11.1792 213.753 11.2134C213.726 11.2476 213.709 11.2871 213.702 11.3287C213.696 11.3703 213.7 11.4128 213.715 11.4525L215.555 16.383L213.824 18.6114C213.793 18.6508 213.775 18.6972 213.771 18.7456C213.767 18.7939 213.778 18.8422 213.802 18.8853C213.827 18.9283 213.864 18.9645 213.909 18.9897C213.954 19.015 214.006 19.0283 214.06 19.0283H215.732C215.81 19.0283 215.886 19.0111 215.955 18.9783C216.024 18.9455 216.084 18.8979 216.128 18.8398L221.688 11.5123C221.718 11.4725 221.735 11.4261 221.738 11.3779C221.741 11.3298 221.73 11.2817 221.705 11.239C221.681 11.1963 221.644 11.1605 221.599 11.1354C221.554 11.1104 221.502 11.0971 221.449 11.0969" fill="#253B80"/>
<path d="M239.335 8.38878L237.91 16.665C237.903 16.7027 237.906 16.7414 237.917 16.7783C237.928 16.8153 237.948 16.8494 237.975 16.8786C238.002 16.9078 238.036 16.9312 238.074 16.9473C238.112 16.9633 238.154 16.9715 238.196 16.9715H239.629C239.744 16.9717 239.856 16.9345 239.943 16.8665C240.031 16.7985 240.089 16.7041 240.107 16.6006L241.513 8.47767C241.52 8.4398 241.517 8.40109 241.506 8.3642C241.494 8.32731 241.474 8.29312 241.447 8.26399C241.42 8.23484 241.386 8.21146 241.348 8.19543C241.309 8.1794 241.268 8.17112 241.226 8.17114H239.621C239.552 8.17115 239.485 8.19372 239.433 8.23477C239.38 8.27582 239.346 8.33263 239.335 8.39491" fill="#179BD7"/>
<path d="M189.345 5.36495C188.594 4.58485 187.237 4.25073 185.503 4.25073H180.47C180.298 4.25095 180.132 4.30689 180.002 4.40855C179.871 4.51022 179.784 4.65095 179.757 4.80554L177.656 16.9286C177.646 16.9852 177.649 17.0432 177.666 17.0986C177.682 17.1539 177.712 17.2053 177.753 17.249C177.793 17.2928 177.844 17.328 177.901 17.3521C177.958 17.3762 178.02 17.3885 178.083 17.3884H181.192L181.977 12.8626L181.954 13.0036C181.98 12.8494 182.066 12.7089 182.196 12.6074C182.326 12.506 182.492 12.4503 182.663 12.4503H184.138C187.041 12.4503 189.311 11.3775 189.975 8.26622C189.995 8.17426 190.012 8.08537 190.027 7.99801C190.224 6.84854 190.027 6.06689 189.345 5.35882" fill="#8A9099"/>
<path d="M182.816 8.01946C182.832 7.92727 182.872 7.83998 182.933 7.76519C182.994 7.69041 183.075 7.63038 183.167 7.59033C183.251 7.55287 183.344 7.53347 183.438 7.53362H187.385C187.821 7.53092 188.256 7.55961 188.686 7.61945C188.8 7.63631 188.911 7.65623 189.022 7.67769C189.133 7.69914 189.234 7.72367 189.335 7.75125L189.484 7.79263C189.672 7.84923 189.855 7.91998 190.03 8.00414C190.227 6.85467 190.03 6.07303 189.348 5.36495C188.597 4.58485 187.242 4.25073 185.506 4.25073H180.47C180.298 4.25095 180.132 4.30689 180.002 4.40855C179.871 4.51022 179.784 4.65095 179.757 4.80554L177.656 16.9271C177.646 16.9837 177.649 17.0417 177.666 17.097C177.682 17.1524 177.712 17.2037 177.753 17.2475C177.793 17.2913 177.844 17.3265 177.901 17.3506C177.958 17.3746 178.02 17.387 178.083 17.3869H181.192L181.977 12.8626L182.816 8.01946Z" fill="#253B80"/>
<path d="M190.028 8.00439C190.013 8.09175 189.996 8.18065 189.976 8.27261C189.304 11.3808 187.042 12.4567 184.14 12.4567H182.662C182.49 12.4569 182.324 12.5135 182.194 12.6163C182.064 12.719 181.979 12.8609 181.955 13.0161L181.199 17.3902L180.983 18.6301C180.975 18.6793 180.978 18.7297 180.992 18.7777C181.007 18.8257 181.033 18.8703 181.069 18.9082C181.104 18.9462 181.148 18.9766 181.198 18.9974C181.248 19.0181 181.302 19.0288 181.356 19.0286H183.976C184.126 19.0285 184.271 18.9796 184.385 18.8909C184.499 18.8022 184.575 18.6793 184.598 18.5443L184.624 18.4217L185.118 15.5679L185.15 15.4147C185.173 15.2797 185.249 15.1568 185.363 15.0681C185.477 14.9793 185.622 14.9305 185.771 14.9303H186.165C188.702 14.9303 190.689 13.9893 191.27 11.2704C191.512 10.1347 191.386 9.18605 190.746 8.51935C190.542 8.31263 190.299 8.14172 190.028 8.01512" fill="#179BD7"/>
<path d="M189.333 7.75125C189.232 7.72367 189.127 7.69914 189.02 7.67769C188.912 7.65623 188.801 7.63631 188.684 7.61945C188.253 7.55961 187.818 7.53092 187.383 7.53362H183.439C183.345 7.53347 183.252 7.55287 183.168 7.59033C183.076 7.63038 182.995 7.69041 182.934 7.76519C182.873 7.83998 182.833 7.92727 182.817 8.01946L181.977 12.8687L181.953 13.0097C181.979 12.8556 182.065 12.7152 182.195 12.6137C182.324 12.5122 182.49 12.4564 182.661 12.4564H184.138C187.04 12.4564 189.311 11.3836 189.974 8.27235C189.995 8.18039 190.011 8.0915 190.027 8.00414C189.851 7.91985 189.669 7.84959 189.48 7.79417L189.331 7.75125" fill="#222D65"/>
</g>
</g>
<path fill-rule="evenodd" clip-rule="evenodd" d="M300.122 12.7669C300.122 10.0326 298.81 7.875 296.303 7.875C293.785 7.875 292.262 10.0326 292.262 12.7455C292.262 15.9605 294.06 17.584 296.642 17.584C297.9 17.584 298.853 17.2957 299.572 16.8898V14.7536C298.853 15.1167 298.027 15.341 296.98 15.341C295.954 15.341 295.044 14.9779 294.928 13.7175H300.101C300.101 13.5787 300.122 13.0232 300.122 12.7669ZM294.896 11.7522C294.896 10.5453 295.626 10.0432 296.292 10.0432C296.938 10.0432 297.625 10.5453 297.625 11.7522H294.896Z" fill="#635BFF"/>
<path fill-rule="evenodd" clip-rule="evenodd" d="M288.179 7.875C287.142 7.875 286.476 8.36633 286.106 8.70812L285.968 8.0459H283.641V20.5L286.285 19.9339L286.296 16.9111C286.677 17.1888 287.238 17.584 288.169 17.584C290.062 17.584 291.787 16.046 291.787 12.6601C291.776 9.5626 290.031 7.875 288.179 7.875ZM287.544 15.2342C286.92 15.2342 286.55 15.0099 286.296 14.7322L286.285 10.7696C286.561 10.4598 286.941 10.2462 287.544 10.2462C288.507 10.2462 289.174 11.3356 289.174 12.7349C289.174 14.1661 288.518 15.2342 287.544 15.2342Z" fill="#635BFF"/>
<path fill-rule="evenodd" clip-rule="evenodd" d="M280 7.24502L282.655 6.66824V4.5L280 5.06609V7.24502Z" fill="#635BFF"/>
<path d="M282.655 8.05664H280V17.4025H282.655V8.05664Z" fill="#635BFF"/>
<path fill-rule="evenodd" clip-rule="evenodd" d="M277.158 8.84758L276.988 8.05718H274.703V17.4031H277.348V11.0692C277.972 10.2468 279.03 10.3963 279.358 10.5138V8.05718C279.019 7.92901 277.782 7.69403 277.158 8.84758Z" fill="#635BFF"/>
<path fill-rule="evenodd" clip-rule="evenodd" d="M271.863 5.73901L269.282 6.29443L269.271 14.8499C269.271 16.4307 270.446 17.5949 272.012 17.5949C272.879 17.5949 273.514 17.4347 273.863 17.2425V15.0742C273.524 15.2131 271.853 15.7044 271.853 14.1236V10.3318H273.863V8.05679H271.853L271.863 5.73901Z" fill="#635BFF"/>
<path fill-rule="evenodd" clip-rule="evenodd" d="M264.714 10.7696C264.714 10.353 265.052 10.1928 265.613 10.1928C266.417 10.1928 267.433 10.4384 268.237 10.8764V8.36633C267.358 8.01385 266.491 7.875 265.613 7.875C263.465 7.875 262.037 9.00719 262.037 10.8977C262.037 13.8457 266.057 13.3757 266.057 14.6468C266.057 15.1381 265.634 15.2983 265.042 15.2983C264.164 15.2983 263.042 14.9352 262.153 14.4438V16.9859C263.137 17.4131 264.132 17.5947 265.042 17.5947C267.242 17.5947 268.755 16.4946 268.755 14.5827C268.744 11.3997 264.714 11.9658 264.714 10.7696Z" fill="#635BFF"/>
<mask id="mask2_6105_5839" style="mask-type:luminance" maskUnits="userSpaceOnUse" x="320" y="4" width="49" height="17">
<path d="M368.963 4.5H320.121V20.5H368.963V4.5Z" fill="white"/>
</mask>
<g mask="url(#mask2_6105_5839)">
<path fill-rule="evenodd" clip-rule="evenodd" d="M344.305 4.77877L341.041 20.0349H337.094L340.359 4.77877H344.305ZM360.909 14.6293L362.987 8.9012L364.183 14.6293H360.909ZM365.313 20.0349H368.963L365.777 4.77877H362.409C361.651 4.77877 361.012 5.2193 360.729 5.89759L354.807 20.0349H358.95L359.773 17.7559H364.836L365.313 20.0349ZM355.012 15.0536C355.029 11.0275 349.444 10.8052 349.483 9.00616C349.495 8.45917 350.016 7.87756 351.156 7.72858C351.721 7.65484 353.281 7.59766 355.047 8.41101L355.741 5.17603C354.79 4.83143 353.569 4.5 352.048 4.5C348.148 4.5 345.402 6.57401 345.38 9.54263C345.354 11.74 347.339 12.9646 348.835 13.6952C350.372 14.4427 350.888 14.9223 350.882 15.5909C350.871 16.6149 349.656 17.0663 348.52 17.084C346.536 17.1148 345.384 16.5475 344.466 16.1202L343.752 19.4631C344.673 19.8867 346.376 20.2554 348.141 20.2738C352.287 20.2738 354.999 18.2266 355.012 15.0536ZM338.665 4.77877L332.271 20.0349H328.099L324.952 7.85949C324.761 7.1101 324.595 6.83472 324.014 6.51946C323.066 6.00406 321.499 5.52139 320.121 5.22118L320.214 4.77877H326.93C327.785 4.77877 328.556 5.34797 328.75 6.33399L330.412 15.1627L334.519 4.77877H338.665Z" fill="url(#paint0_linear_6105_5839)"/>
</g>
<g clip-path="url(#clip2_6105_5839)">
<path d="M410.108 5.07104H401.371V20.2941H410.108V5.07104Z" fill="#FF5F00"/>
<path d="M401.926 12.6825C401.926 9.58952 403.424 6.84621 405.726 5.07068C404.035 3.77991 401.899 3 399.569 3C394.05 3 389.584 7.33039 389.584 12.6825C389.584 18.0346 394.05 22.365 399.569 22.365C401.899 22.365 404.035 21.5851 405.726 20.2937C403.424 18.5455 401.926 15.7755 401.926 12.6825Z" fill="#EB001B"/>
<path d="M421.896 12.6825C421.896 18.0346 417.431 22.365 411.911 22.365C409.582 22.365 407.446 21.5851 405.754 20.2937C408.084 18.5188 409.554 15.7755 409.554 12.6825C409.554 9.58952 408.056 6.84621 405.754 5.07068C407.446 3.77991 409.582 3 411.911 3C417.431 3 421.896 7.35707 421.896 12.6825Z" fill="#F79E1B"/>
</g>
<defs>
<linearGradient id="paint0_linear_6105_5839" x1="320.121" y1="12.3869" x2="368.964" y2="12.3869" gradientUnits="userSpaceOnUse">
<stop stop-color="#231F5E"/>
<stop offset="1" stop-color="#024DA0"/>
</linearGradient>
<clipPath id="clip0_6105_5839">
<rect width="94" height="25" fill="white" transform="translate(63.0371)"/>
</clipPath>
<clipPath id="clip1_6105_5839">
<rect width="65" height="16" fill="white" transform="translate(177.037 4.5)"/>
</clipPath>
<clipPath id="clip2_6105_5839">
<rect width="33" height="20" fill="white" transform="translate(388.963 2.5)"/>
</clipPath>
</defs>
</svg>
