<svg width="222" height="36" viewBox="0 0 222 36" fill="none" xmlns="http://www.w3.org/2000/svg">
<path d="M14.0767 35.8601C14.9474 35.8601 15.6534 35.1419 15.6534 34.2562C15.6534 33.3704 14.9474 32.6523 14.0767 32.6523C13.2059 32.6523 12.5 33.3704 12.5 34.2562C12.5 35.1419 13.2059 35.8601 14.0767 35.8601Z" fill="#87E64B"/>
<path d="M23.1343 23.3345L14.2511 24.3025C14.0886 24.3207 14.0046 24.1091 14.134 24.0069L22.8272 17.1221C23.3918 16.6528 23.7512 15.9216 23.597 15.1386C23.4428 13.9381 22.4678 13.155 21.2368 13.3119L11.7917 14.7183C11.625 14.7435 11.5355 14.5264 11.6691 14.4228L21.0316 7.1513C22.8796 5.69029 23.0324 2.81868 21.34 1.14896C19.8005 -0.417111 17.337 -0.365281 15.7975 1.20079L0.710658 16.8083C0.146074 17.4344 -0.110053 18.2693 0.0441748 19.1574C0.300304 20.5666 1.6856 21.5065 3.07227 21.246L11.205 19.558C11.3813 19.5216 11.4777 19.7611 11.3248 19.8592L2.30113 25.734C1.17197 26.4653 0.65971 27.7694 1.01774 29.0749C1.37714 30.7979 3.0709 31.7896 4.71232 31.3722L18.2004 27.9921C18.3519 27.9543 18.4634 28.1336 18.3656 28.2568L16.2588 30.9015C15.6942 31.6327 16.6182 32.6245 17.3879 32.0502L24.3158 26.2565C25.5469 25.213 24.7262 23.1762 23.1357 23.3331L23.1343 23.3345Z" fill="#82B440"/>
<path d="M41.8902 11.1205C46.2031 11.1205 50.4182 13.7068 50.4182 19.4685C50.4182 19.9258 50.3934 20.6347 50.344 21.1332C50.3328 21.2476 50.2372 21.3345 50.1237 21.3345H38.027C38.3811 23.3972 39.7973 24.7395 42.0173 24.7395C43.4897 24.7395 44.4294 23.9117 44.9408 22.9215C45.0049 22.7969 45.1443 22.7317 45.2792 22.7614L49.8022 23.7642C49.9405 23.7951 50.0135 23.946 49.9573 24.0775C48.8996 26.5141 46.4942 28.9289 41.9858 28.9289C36.0645 28.9289 32.9105 25.0002 32.9105 20.0241C32.9105 15.048 36.1926 11.1193 41.8891 11.1193L41.8902 11.1205ZM45.3657 18.1924C45.1409 16.228 43.8528 15.1807 41.9869 15.1807C39.541 15.1807 38.5114 16.4579 38.1248 18.1924H45.3657Z" fill="black"/>
<path d="M51.9632 28.1811V11.8704C51.9632 11.7458 52.0621 11.6452 52.1846 11.6452H56.8909C57.0134 11.6452 57.1123 11.7458 57.1123 11.8704V13.8062C58.2386 12.0054 59.9123 11.1215 62.0681 11.1215C65.2221 11.1215 67.9254 13.3146 67.9254 18.2255V28.1811C67.9254 28.3057 67.8265 28.4063 67.704 28.4063H62.9977C62.8752 28.4063 62.7763 28.3057 62.7763 28.1811V18.9778C62.7763 16.7848 61.65 15.5728 60.0089 15.5728C58.2386 15.5728 57.1123 16.7516 57.1123 19.4363V28.1811C57.1123 28.3057 57.0134 28.4063 56.8909 28.4063H52.1846C52.0621 28.4063 51.9632 28.3057 51.9632 28.1811Z" fill="black"/>
<path d="M68.244 11.644H73.2358C73.3336 11.644 73.419 11.7092 73.4483 11.8041L77.198 24.4444L80.9477 11.8041C80.9758 11.7092 81.0624 11.644 81.1601 11.644H86.1519C86.3048 11.644 86.4127 11.7983 86.3599 11.9458L80.6184 28.197C80.5745 28.3216 80.4576 28.4062 80.3261 28.4062H74.0687C73.9383 28.4062 73.8214 28.3228 73.7765 28.197L68.035 11.9458C67.9833 11.7995 68.0901 11.644 68.2429 11.644H68.244Z" fill="black"/>
<path d="M97.2778 28.1811V25.6233C96.473 27.3258 94.6712 28.93 91.8713 28.93C88.6206 28.93 86.2073 26.8353 86.2073 23.8887C86.2073 20.7787 88.2351 18.4542 92.6761 18.4542H95.2512C96.6674 18.4542 97.053 17.4068 96.9249 16.7196C96.7315 15.5408 95.7019 14.9188 94.2542 14.9188C92.4254 14.9188 91.3182 15.9467 91.1789 17.3622C91.1665 17.4914 91.0496 17.584 90.9237 17.5623L86.558 16.8225C86.4366 16.802 86.3535 16.6842 86.3759 16.5618C87.0874 12.6983 90.6888 11.1215 94.3846 11.1215C98.0803 11.1215 102.173 12.0385 102.173 18.979V28.1822C102.173 28.3068 102.074 28.4075 101.951 28.4075H97.5026C97.3801 28.4075 97.2812 28.3068 97.2812 28.1822L97.2778 28.1811ZM93.3842 25.1328C95.4434 25.1328 96.8597 23.5617 97.0204 21.5974H93.899C92.0005 21.5974 91.3239 22.3829 91.3565 23.4634C91.3891 24.6091 92.2894 25.1328 93.3842 25.1328Z" fill="black"/>
<path d="M102.944 15.6097V11.8696C102.944 11.745 103.043 11.6444 103.165 11.6444H105.003C105.856 11.6444 106.547 10.9412 106.547 10.0733V7.15536C106.547 7.03073 106.646 6.93011 106.769 6.93011H110.96C111.083 6.93011 111.182 7.03073 111.182 7.15536V11.6444H114.565C114.688 11.6444 114.786 11.745 114.786 11.8696V15.6097C114.786 15.7343 114.688 15.8349 114.565 15.8349H111.182V21.8915C111.182 23.865 112.831 24.6688 114.553 24.0468C114.667 24.0057 114.786 24.0937 114.786 24.2161V28.1619C114.786 28.3071 114.69 28.4352 114.552 28.4684C114.106 28.5758 113.489 28.6685 112.76 28.6685C108.769 28.6685 106.034 27.293 106.034 21.401V15.8361H103.165C103.043 15.8361 102.944 15.7354 102.944 15.6108V15.6097Z" fill="black"/>
<path d="M133.581 20.0251C133.581 24.936 130.17 28.9299 124.57 28.9299C118.97 28.9299 115.559 24.936 115.559 20.0251C115.559 15.1142 118.97 11.1203 124.57 11.1203C130.17 11.1203 133.581 15.1142 133.581 20.0251ZM128.432 20.0251C128.432 17.6023 127.113 15.5727 124.57 15.5727C122.028 15.5727 120.708 17.6023 120.708 20.0251C120.708 22.448 122.028 24.4775 124.57 24.4775C127.113 24.4775 128.432 22.448 128.432 20.0251Z" fill="black"/>
<path d="M138.737 28.1813V12.3967C138.737 12.2721 138.836 12.1714 138.958 12.1714H140.574C140.697 12.1714 140.796 12.2721 140.796 12.3967V14.528C141.793 12.7603 143.112 11.9096 144.914 11.9096C147.231 11.9096 148.615 12.9901 149.516 15.1832C150.546 12.9901 151.962 11.9096 154.182 11.9096C156.917 11.9096 159.33 13.4155 159.33 18.4235V28.1813C159.33 28.3059 159.231 28.4066 159.108 28.4066H157.492C157.369 28.4066 157.271 28.3059 157.271 28.1813V18.0634C157.271 15.0848 155.887 13.874 153.731 13.874C151.575 13.874 150.063 15.4782 150.063 18.3584V28.1825C150.063 28.3071 149.964 28.4077 149.842 28.4077H148.226C148.103 28.4077 148.004 28.3071 148.004 28.1825V18.0645C148.004 15.086 146.62 13.8751 144.465 13.8751C142.309 13.8751 140.796 15.4793 140.796 18.0977V28.1836C140.796 28.3082 140.697 28.4088 140.574 28.4088H138.958C138.836 28.4088 138.737 28.3082 138.737 28.1836V28.1813Z" fill="black"/>
<path d="M172.07 28.181V25.0023C171.04 27.2606 169.013 28.6681 166.406 28.6681C163.445 28.6681 161.258 26.77 161.258 23.8887C161.258 20.4516 163.735 18.7822 166.986 18.7822H170.429C171.652 18.7822 172.006 18.0951 171.877 17.0145C171.716 15.607 170.654 13.741 167.855 13.741C165.056 13.741 163.634 15.4378 163.407 17.0431C163.389 17.17 163.27 17.2547 163.148 17.2295L161.602 16.9254C161.483 16.9013 161.402 16.7847 161.426 16.6635C162.055 13.4117 164.8 11.9081 167.822 11.9081C170.845 11.9081 174.129 13.2173 174.129 19.1424V28.181C174.129 28.3056 174.03 28.4062 173.908 28.4062H172.291C172.169 28.4062 172.07 28.3056 172.07 28.181ZM167.114 20.5499C164.411 20.5499 163.317 21.9906 163.317 23.7252C163.317 25.3294 164.347 26.8352 166.439 26.8352C169.624 26.8352 171.941 24.4455 172.07 20.5511H167.114V20.5499Z" fill="black"/>
<path d="M183.815 13.9926C183.815 14.1309 183.694 14.2372 183.56 14.2144C180.642 13.7101 178.667 16.0141 178.667 18.7822V28.1798C178.667 28.3045 178.568 28.4051 178.445 28.4051H176.829C176.707 28.4051 176.608 28.3045 176.608 28.1798V12.3952C176.608 12.2706 176.707 12.17 176.829 12.17H178.445C178.568 12.17 178.667 12.2706 178.667 12.3952V15.2469C179.407 13.119 181.113 11.9081 183.236 11.9081C183.361 11.9081 183.498 11.9219 183.624 11.9402C183.734 11.9562 183.816 12.0511 183.816 12.1631V13.9914L183.815 13.9926Z" fill="black"/>
<path d="M198.545 28.4062H196.41C196.341 28.4062 196.277 28.3742 196.236 28.3193L189.802 19.9279L187.679 21.8591V28.1798C187.679 28.3045 187.58 28.4051 187.457 28.4051H185.841C185.718 28.4051 185.619 28.3045 185.619 28.1798V7.681C185.619 7.55637 185.718 7.45575 185.841 7.45575H187.457C187.58 7.45575 187.679 7.55637 187.679 7.681V19.3379L195.532 12.226C195.573 12.1894 195.625 12.1688 195.679 12.1688H197.906C198.11 12.1688 198.205 12.4261 198.052 12.5633L191.315 18.6176L198.718 28.0392C198.833 28.1867 198.73 28.4051 198.545 28.4051V28.4062Z" fill="black"/>
<path d="M205.629 11.9093C209.169 11.9093 212.869 14.2338 212.869 19.7324C212.869 20.0651 212.85 20.3567 212.825 20.6094C212.814 20.7249 212.719 20.8129 212.605 20.8129H199.966C200.256 24.3803 202.508 26.7049 205.725 26.7049C208.333 26.7049 209.893 25.1201 210.548 23.4793C210.589 23.3764 210.694 23.317 210.801 23.341L212.312 23.6737C212.441 23.7023 212.516 23.8384 212.475 23.9664C211.776 26.1423 209.603 28.6681 205.725 28.6681C200.674 28.6681 197.938 24.7725 197.938 20.2881C197.938 15.3132 201.092 11.9081 205.628 11.9081L205.629 11.9093ZM210.81 18.9789C210.585 15.6402 208.493 13.7422 205.694 13.7422C202.572 13.7422 200.642 15.4767 200.031 18.9789H210.81Z" fill="black"/>
<path d="M212.969 13.7789V12.3965C212.969 12.2719 213.068 12.1713 213.19 12.1713H214.643C215.496 12.1713 216.187 11.4681 216.187 10.6003V7.68344C216.187 7.55881 216.286 7.45819 216.409 7.45819H217.897C218.019 7.45819 218.118 7.55881 218.118 7.68344V12.1713H221.5C221.623 12.1713 221.722 12.2719 221.722 12.3965V13.7789C221.722 13.9035 221.623 14.0042 221.5 14.0042H218.118V23.4966C218.118 26.689 220.014 26.8594 221.445 26.4889C221.586 26.4523 221.723 26.5587 221.723 26.7062V28.172C221.723 28.2749 221.654 28.3641 221.557 28.3904C221.195 28.4876 220.747 28.5367 220.275 28.5367C217.218 28.5367 216.06 26.8342 216.06 23.2668V14.003H213.193C213.07 14.003 212.971 13.9024 212.971 13.7778L212.969 13.7789Z" fill="black"/>
</svg>
