<svg width="88" height="16" viewBox="0 0 88 16" fill="none" xmlns="http://www.w3.org/2000/svg">
<path d="M3.46414 15.2734L4.66736 10.118L0.666656 6.65192L5.93656 6.19586L8.00047 1.3335L10.0644 6.19489L15.3333 6.65095L11.3336 10.117L12.5368 15.2724L8.00047 12.5361L3.46414 15.2734Z" fill="#FFB606"/>
<path d="M21.4641 15.2734L22.6674 10.118L18.6667 6.65192L23.9366 6.19586L26.0005 1.3335L28.0644 6.19489L33.3333 6.65095L29.3336 10.117L30.5368 15.2724L26.0005 12.5361L21.4641 15.2734Z" fill="#FFB606"/>
<path d="M39.4641 15.2734L40.6674 10.118L36.6667 6.65192L41.9366 6.19586L44.0005 1.3335L46.0644 6.19489L51.3333 6.65095L47.3336 10.117L48.5368 15.2724L44.0005 12.5361L39.4641 15.2734Z" fill="#FFB606"/>
<path d="M57.4641 15.2734L58.6674 10.118L54.6667 6.65192L59.9366 6.19586L62.0005 1.3335L64.0644 6.19489L69.3333 6.65095L65.3336 10.117L66.5368 15.2724L62.0005 12.5361L57.4641 15.2734Z" fill="#FFB606"/>
<path d="M75.4641 15.2734L76.6674 10.118L72.6667 6.65192L77.9366 6.19586L80.0005 1.3335L82.0644 6.19489L87.3333 6.65095L83.3336 10.117L84.5368 15.2724L80.0005 12.5361L75.4641 15.2734Z" fill="#FFB606"/>
</svg>
