<svg xmlns="http://www.w3.org/2000/svg" width="151" height="6" viewBox="0 0 151 6" fill="none"><path d="M136.028 3.98874C136.028 4.07043 136.028 4.11127 136.028 4.19296C135.65 4.19296 135.197 4.19296 134.819 4.19296C134.516 4.19296 134.289 4.15212 134.063 4.11127C133.836 4.07043 133.609 4.02958 133.458 3.98874C133.08 3.94789 132.777 4.02958 132.475 4.07043C131.492 4.07043 131.114 3.8662 130.66 3.66198C130.509 3.4986 130.811 3.37606 131.189 3.25353C131.567 3.17184 131.719 3.00846 132.172 2.92677C132.248 2.92677 132.323 2.92677 132.475 2.92677C132.626 2.88592 132.702 2.80423 132.777 2.76339C132.626 2.76339 132.475 2.76339 132.323 2.80423C132.097 2.80423 131.87 2.80423 131.567 2.80423C131.643 2.80423 131.719 2.84508 131.794 2.84508C131.945 3.00846 131.416 3.00846 131.114 3.0493C131.114 3.0493 131.114 3.0493 131.038 3.0493C130.962 3.09015 130.887 3.17184 130.811 3.21268C130.509 3.33522 129.904 3.41691 129.828 3.62113C129.828 3.66198 129.828 3.66198 129.828 3.70282C129.601 3.74367 129.45 3.78451 129.374 3.74367C129.828 3.8662 130.736 4.02958 129.601 4.27465H129.45H129.299C129.072 4.15212 128.845 4.02958 128.24 4.15212C127.56 4.19296 126.728 4.11127 126.199 4.3155C125.821 4.39719 125.518 4.43803 125.14 4.51972C125.216 4.56057 125.216 4.56057 125.291 4.60141C125.367 4.64226 125.518 4.64226 125.594 4.6831C125.669 4.72395 125.745 4.84648 125.745 4.84648C125.065 4.96902 125.065 4.72395 124.686 4.6831C124.686 4.64226 124.686 4.60141 124.611 4.56057C124.384 4.56057 124.233 4.47888 124.233 4.43803C124.308 4.35634 124.384 4.3155 124.535 4.27465C124.913 4.15212 124.913 3.98874 125.216 3.82536C125.896 3.82536 125.518 3.62113 125.821 3.58029C126.047 3.53944 126.35 3.4986 126.652 3.4986C127.03 3.4986 127.333 3.53944 127.635 3.45775C128.921 3.66198 128.543 3.33522 128.618 3.17184C128.467 3.13099 128.392 3.13099 128.316 3.0493C128.392 2.96761 128.467 2.92677 128.618 2.88592C128.996 2.76339 128.996 2.60001 129.299 2.43663C129.979 2.43663 129.601 2.23241 129.904 2.19156C130.131 2.15072 130.433 2.10987 130.736 2.10987C131.114 2.10987 131.416 2.15072 131.719 2.06903C133.004 2.27325 132.626 1.94649 132.701 1.78311C133.155 1.78311 133.684 1.82396 133.684 1.57889C133.76 1.57889 133.836 1.57889 133.911 1.57889C133.911 1.4972 133.987 1.41551 133.987 1.29297C134.97 1.0479 135.272 1.41551 135.877 1.4972C136.029 1.66058 135.499 1.66058 135.197 1.70142C135.197 1.70142 135.197 1.70142 135.121 1.70142C135.046 1.74227 134.97 1.82396 134.894 1.8648C134.592 1.98734 133.987 2.06903 133.911 2.27325C133.911 2.3141 133.911 2.3141 133.911 2.35494C133.684 2.39579 133.533 2.43663 133.458 2.39579C133.911 2.51832 134.819 2.6817 133.684 2.92677H133.609C133.911 3.00846 133.911 3.17184 134.138 3.29437C134.365 3.37606 134.667 3.45775 135.046 3.53944C135.197 3.53944 135.272 3.58029 135.424 3.62113C135.726 3.66198 135.877 3.82536 136.028 3.98874ZM141.019 3.70282C140.49 3.62113 140.036 3.53944 139.431 3.58029C139.28 3.58029 139.129 3.62113 139.053 3.66198C138.902 3.70282 138.751 3.78451 138.675 3.82536C139.129 3.90705 139.507 4.02958 139.431 4.19296C139.96 4.35634 140.565 4.27465 141.095 4.23381C141.397 4.19296 141.7 4.15212 141.775 4.02958C141.7 3.94789 141.397 3.82536 141.019 3.70282ZM136.407 4.27465C136.407 4.3155 136.407 4.3155 136.407 4.35634C136.482 4.39719 136.558 4.39719 136.709 4.39719C137.087 4.39719 137.39 4.56057 137.768 4.39719C137.39 4.19296 136.86 4.27465 136.407 4.27465ZM129.526 4.23381C129.45 4.27465 129.45 4.27465 129.526 4.23381V4.23381ZM146.236 3.25353C145.934 3.21268 145.707 3.25353 145.48 3.33522C145.405 3.37606 145.405 3.41691 145.329 3.45775C145.329 3.4986 145.405 3.53944 145.556 3.53944C145.934 3.62113 145.405 3.78451 145.858 3.82536C146.161 3.8662 146.463 3.90705 146.841 3.90705C146.841 3.82536 146.841 3.78451 146.841 3.70282C146.614 3.58029 146.69 3.41691 146.463 3.29437C146.463 3.33522 146.312 3.29437 146.236 3.25353ZM123.93 4.35634C123.855 4.39719 123.703 4.43803 123.628 4.43803C122.494 4.51972 121.435 4.56057 120.301 4.51972C119.545 4.35634 118.864 4.35634 118.108 4.51972C118.184 4.47888 118.259 4.39719 118.335 4.35634C118.108 4.27465 118.032 4.15212 117.73 4.07043C116.974 4.02958 116.747 4.19296 116.369 4.35634C116.52 4.43803 116.596 4.56057 116.747 4.64226C116.52 4.76479 116.142 4.84648 115.688 4.92817C115.159 4.96902 114.705 4.88733 114.479 4.76479C114.327 4.6831 114.025 4.60141 114.176 4.47888C114.252 4.43803 114.327 4.35634 114.554 4.35634C114.327 4.3155 114.101 4.3155 113.798 4.3155C113.042 4.3155 112.664 4.51972 111.908 4.51972C112.21 4.64226 112.361 4.76479 112.135 4.88733C112.059 4.88733 111.983 4.88733 111.908 4.88733C111.681 4.88733 111.454 4.88733 111.152 4.88733C110.925 4.92817 110.698 4.92817 110.547 4.88733C110.547 4.84648 110.547 4.84648 110.471 4.80564C110.093 4.72395 109.866 4.64226 110.169 4.51972C109.942 4.47888 109.791 4.43803 109.564 4.43803C109.412 4.51972 109.261 4.64226 109.186 4.72395C108.883 4.84648 108.43 4.88733 107.9 4.92817H107.749H107.598C107.144 4.92817 106.842 4.84648 106.615 4.72395C106.615 4.6831 106.539 4.60141 106.539 4.56057C106.01 4.56057 105.481 4.56057 105.027 4.56057C104.724 4.72395 104.8 4.88733 105.254 5.00986C104.649 5.09155 103.893 4.92817 103.288 5.09155C102.91 5.05071 102.456 4.96902 102.002 5.00986C101.624 4.96902 101.7 4.76479 101.095 4.80564C101.019 4.96902 100.793 5.09155 100.414 5.21409C100.339 5.21409 100.188 5.21409 100.112 5.21409C99.8852 5.25493 99.6583 5.25493 99.5071 5.21409C99.2803 5.1324 99.0534 5.09155 98.8266 5.00986C98.8266 4.96902 98.8266 4.96902 98.751 4.92817C98.2217 4.92817 97.6924 4.92817 97.1631 4.92817C96.785 5.05071 96.4069 5.1324 95.8776 5.09155C95.8776 5.05071 95.8776 4.96902 95.8776 4.92817C95.802 4.92817 95.7264 4.88733 95.6508 4.88733H95.5752C95.2727 4.88733 95.0459 4.88733 94.7434 4.88733C93.9873 4.84648 93.3068 4.76479 92.5506 4.76479C92.475 4.76479 92.3238 4.76479 92.2482 4.76479C91.9457 4.84648 91.6433 4.84648 91.2652 4.76479C91.0384 4.80564 90.8871 4.80564 90.6603 4.84648C90.8871 4.96902 90.9627 5.09155 90.5847 5.21409C90.131 5.21409 89.6017 5.17324 89.2236 5.33662C88.9968 5.29578 88.77 5.25493 88.77 5.17324C88.6943 4.96902 88.6943 4.96902 87.9382 5.05071C87.6357 5.1324 87.3333 5.21409 86.9552 5.25493C86.4259 5.29578 85.821 5.29578 85.2917 5.33662C84.6868 5.33662 84.0063 5.5 83.4014 5.37747C83.2502 5.33662 82.7209 5.41831 83.0233 5.25493C83.1745 5.17324 83.0989 5.09155 83.2502 5.00986C82.7209 5.00986 82.2672 4.96902 81.8135 5.09155C81.7379 5.00986 81.7379 4.92817 81.6623 4.84648C81.4354 4.84648 81.133 4.84648 80.9061 4.84648C80.7549 4.92817 80.3768 4.92817 80.15 4.92817C79.6207 5.05071 79.0914 5.05071 78.4865 5.05071C78.0328 5.05071 77.5791 4.96902 77.2011 5.09155C77.0498 5.17324 76.8986 5.25493 76.6718 5.29578C76.3693 5.37747 75.9912 5.37747 75.6132 5.37747C75.2351 5.54084 74.857 4.84648 74.479 5.37747C74.1009 5.37747 73.9497 5.41831 73.7228 5.41831C73.0423 5.45916 72.3618 5.45916 71.7569 5.5C71.4544 5.5 71.152 5.5 70.8495 5.5C70.3958 5.29578 69.8665 5.29578 69.2616 5.41831C68.9592 5.25493 68.5811 5.09155 67.9006 5.05071C67.4469 5.09155 66.9932 5.09155 66.5395 5.1324C66.3127 5.17324 66.1615 5.21409 65.9346 5.21409C65.6322 5.17324 65.3297 5.1324 64.9516 5.17324C64.8004 5.17324 64.7248 5.21409 64.5736 5.21409C64.1955 5.25493 63.8174 5.29578 63.515 5.33662C63.3638 5.37747 63.1369 5.37747 62.9101 5.37747C62.532 5.41831 62.3052 5.33662 62.0027 5.29578C61.4734 5.05071 60.8685 4.92817 59.9611 5.09155C59.4318 5.1324 58.9025 5.17324 58.3732 5.21409C58.222 5.21409 58.0708 5.21409 58.0708 5.17324C57.9196 5.09155 57.6927 5.09155 57.3903 5.09155C57.1634 5.00986 56.9366 4.96902 56.7098 4.88733C56.7098 4.84648 56.7098 4.80564 56.7098 4.80564C56.1805 4.84648 55.8024 4.80564 55.4243 4.72395C55.1975 4.76479 55.0462 4.76479 54.8194 4.80564C55.1219 4.92817 55.1219 5.05071 54.4413 5.09155C53.3071 4.84648 53.0047 5.09155 52.7778 5.33662C52.4754 5.33662 52.1729 5.33662 51.8705 5.33662C50.8875 5.29578 49.8289 5.29578 48.8459 5.1324C48.6191 5.1324 48.3923 5.1324 48.1654 5.17324C47.863 5.17324 47.4849 5.17324 47.1824 5.17324C46.6531 5.17324 46.5775 5.05071 46.5775 4.92817C46.5775 4.88733 46.6531 4.84648 46.7287 4.80564C46.1995 4.88733 45.7458 5.00986 45.1409 5.05071C44.914 5.09155 44.7628 5.1324 44.536 5.17324C44.1579 5.1324 43.7042 5.09155 43.3261 5.05071C43.0237 4.96902 42.6456 4.96902 42.2675 4.96902C41.9651 5.00986 41.8139 5.17324 41.2846 5.09155C40.9821 5.1324 40.604 5.17324 40.226 5.1324C40.0747 5.17324 39.9235 5.21409 39.7723 5.25493C38.7893 5.25493 38.26 4.88733 37.2014 4.92817C36.6721 4.80564 36.0672 4.80564 35.5379 4.84648C35.6135 4.88733 35.5379 4.92817 35.4623 4.96902C35.2355 5.29577 34.3281 5.09155 33.7988 5.17324C33.0427 5.21409 32.5134 5.05071 31.8329 5.05071C31.606 5.05071 31.3792 5.00986 31.2279 5.00986C31.1523 4.96902 31.0767 4.96902 30.9255 4.96902C30.9255 4.92817 30.9255 4.88733 30.8499 4.84648C30.3206 4.80564 29.8669 4.76479 29.6401 4.60141C29.1864 4.60141 28.7327 4.60141 28.279 4.47888C28.3546 4.51972 28.3546 4.51972 28.3546 4.56057C28.3546 4.60141 28.279 4.60141 28.2034 4.64226C28.4302 4.64226 28.6571 4.6831 28.8083 4.72395C28.8839 4.76479 28.8839 4.80564 28.7327 4.84648C28.3546 4.92817 28.0522 4.96902 27.6741 5.05071H27.5985H27.5229C27.3716 4.96902 27.2204 4.92817 27.0692 4.84648C26.9936 4.80564 27.0692 4.76479 27.1448 4.72395C26.0106 4.72395 24.8764 4.80564 23.8178 4.92817C23.4397 4.92817 23.0617 4.88733 22.7592 4.84648C21.7006 4.64226 20.7176 4.76479 19.7347 4.92817C18.5248 4.96902 17.3906 4.88733 16.4077 4.72395C16.0296 4.64226 15.5759 4.56057 15.1222 4.6831C14.6685 4.76479 14.2149 4.80564 13.6856 4.76479C13.61 4.76479 13.5343 4.76479 13.4587 4.76479C12.4001 4.72395 11.1903 4.76479 10.4342 4.47888C10.283 4.39719 9.9805 4.39719 9.75366 4.39719C9.67804 4.35634 9.67804 4.35634 9.75366 4.3155H9.67804C9.52682 4.27465 9.4512 4.27465 9.4512 4.19296C9.37559 4.19296 9.37559 4.15212 9.37559 4.11127C9.22436 4.11127 9.07313 4.11127 8.92191 4.11127C9.07313 4.43803 8.69507 4.47888 7.10718 4.39719C6.80472 4.3155 6.27543 4.47888 5.82175 4.43803C4.4607 4.3155 3.17527 4.11127 1.66299 4.11127C1.20931 4.11127 0.52879 4.02958 0.301949 3.8662C-0.529802 3.62113 0.604403 3.66198 0.755631 3.58029C2.04106 3.25353 3.78018 3.53944 5.14122 3.29437C5.97297 3.00846 6.80472 2.96761 7.86332 3.17184C8.09016 3.21268 8.24138 3.21268 8.46823 3.25353C8.54384 3.13099 8.84629 3.17184 9.14875 3.17184C9.4512 3.09015 9.75366 3.09015 10.1317 3.0493C10.0561 3.0493 10.0561 3.0493 9.9805 3.0493C8.61945 2.92677 7.33402 2.72254 5.82175 2.76339C5.29245 2.76339 4.61193 2.6817 4.38509 2.47748C3.55334 2.27325 4.76316 2.3141 4.83877 2.19156C6.1242 1.8648 7.86332 2.15072 9.22436 1.90565C9.9805 1.61973 10.8879 1.57889 11.8708 1.82396C12.0977 1.8648 12.2489 1.8648 12.4758 1.90565C12.5514 1.78311 12.8538 1.82396 13.1563 1.82396C13.8368 1.66058 14.7442 1.70142 15.5003 1.61973C16.6345 1.45635 17.9955 1.57889 19.1298 1.45635C19.2054 1.45635 19.3566 1.45635 19.4322 1.45635C21.9275 1.25213 24.4227 1.21128 26.9936 1.29297C27.2204 1.29297 27.5229 1.33382 27.5985 1.29297C28.9595 0.966213 30.4718 1.12959 31.9085 1.12959C32.5134 1.12959 33.0427 1.17044 33.6476 1.21128C34.1769 1.25213 34.7062 1.29297 35.2355 1.29297C35.0842 1.08875 35.6135 1.08875 36.1428 1.12959C36.3697 1.12959 36.5965 1.12959 36.8234 1.12959C37.7307 1.12959 38.6381 0.966213 39.6211 1.00706C39.9991 1.0479 40.4528 1.08875 40.7553 0.966213C40.8309 0.925368 40.9821 0.884523 41.0577 0.843678C41.2089 0.802833 41.4358 0.761988 41.6626 0.802833C42.1163 0.843678 42.4188 0.966213 42.9481 1.0479C43.0993 1.0479 43.1749 1.08875 43.3261 1.12959C43.4017 1.17044 43.4774 1.21128 43.4017 1.25213C43.7042 1.17044 44.0067 1.17044 44.3091 1.25213C44.2335 1.21128 44.2335 1.12959 44.3847 1.08875C44.5359 1.00706 44.8384 0.925368 45.1409 0.884523C45.5189 0.843678 45.897 0.761988 46.2751 0.884523C46.9556 1.08875 47.4849 0.884523 48.0142 0.802833C49.224 0.802833 49.4508 0.843678 49.224 1.25213H49.2996C49.3752 1.25213 49.4508 1.25213 49.5265 1.25213C49.6777 1.12959 49.7533 1.00706 49.9045 0.884523C49.9801 0.884523 50.0557 0.884523 50.207 0.884523C51.2656 0.843678 52.2485 0.925368 53.2315 0.925368C53.3071 0.925368 53.4584 0.925368 53.534 0.925368C54.2901 1.12959 54.8194 0.966213 55.4999 0.884523C55.5755 0.925368 55.7268 0.925368 55.8024 0.966213C55.9536 1.0479 56.1805 1.0479 56.4829 1.0479C56.7097 1.0479 56.9366 1.0479 57.1634 1.12959C57.6927 1.12959 58.222 1.08875 58.7513 1.08875C58.7513 1.08875 58.7513 1.08875 58.8269 1.08875C58.8269 1.08875 58.8269 1.08875 58.8269 1.0479C59.6587 1.0479 60.4148 1.0479 61.171 0.925368C61.7003 0.966213 61.7759 1.0479 61.8515 1.17044C61.9271 1.17044 61.9271 1.17044 62.0027 1.21128C62.3052 1.21128 62.532 1.21128 62.8345 1.21128C62.9101 1.21128 62.9857 1.21128 63.0613 1.21128C63.1369 1.21128 63.2125 1.21128 63.2881 1.21128C63.3638 1.21128 63.4394 1.21128 63.4394 1.21128C63.3638 1.17044 63.515 1.08875 63.5906 1.00706C64.1199 0.925368 64.4223 0.721143 65.1029 0.680298C65.6322 0.721143 66.0102 0.598608 66.5395 0.598608C66.9932 0.884523 67.7493 0.761988 68.4299 0.680298C68.8836 0.761988 69.2616 0.843678 69.7909 0.843678C70.5471 0.925368 70.6983 0.598608 71.3788 0.639453C71.6057 0.680298 71.6813 0.721143 71.7569 0.802833C72.1349 1.17044 72.9667 0.925368 73.7228 0.925368C73.7984 0.884523 73.8741 0.884523 73.8741 0.843678C74.1765 0.761988 74.479 0.721143 74.7814 0.639453C75.1595 0.721143 75.4619 0.761988 75.3863 0.884523C75.6132 0.884523 75.84 0.843678 76.0668 0.843678C76.1425 0.721143 76.5961 0.680298 76.7474 0.557763C77.2011 0.516919 77.5791 0.476074 78.0328 0.516919C78.5621 0.516919 78.9402 0.516919 79.167 0.680298C79.167 0.761988 79.0914 0.802833 79.0158 0.843678C79.2426 0.843678 79.5451 0.843678 79.7719 0.802833C79.9231 0.761988 79.9988 0.761988 80.15 0.761988C80.7549 0.761988 81.3598 0.721143 82.0403 0.680298C82.4184 0.639453 82.7965 0.884523 83.0989 0.680298C83.477 0.639453 83.8551 0.680298 84.2331 0.680298C85.1405 0.721143 86.1235 0.639453 86.9552 0.843678C87.1065 0.884523 87.1821 0.925368 87.2577 0.966213C87.3333 0.925368 87.4845 0.884523 87.5601 0.802833C88.8456 0.639453 89.8285 1.00706 91.0384 1.00706C91.1896 1.0479 91.3408 1.12959 91.492 1.17044C91.5677 1.17044 91.6433 1.17044 91.7189 1.17044C92.0213 1.12959 92.3994 1.0479 92.7019 1.00706C93.1555 1.17044 93.5336 1.0479 93.9873 1.00706C93.9117 0.966213 93.9117 0.925368 93.9873 0.884523C94.5166 0.639453 95.1971 0.639453 96.0289 0.721143C96.3313 0.680298 96.7094 0.680298 97.0118 0.639453C97.3143 0.680298 97.4655 0.721143 97.4655 0.802833C97.4655 0.884523 97.3143 0.966213 97.2387 1.0479C97.2387 1.0479 97.1631 1.08875 97.0874 1.08875C97.6924 1.08875 98.0704 1.21128 98.3729 1.37466C98.3729 1.45635 98.2217 1.53804 97.9948 1.57889C98.0704 1.57889 98.0704 1.61973 98.0704 1.61973C98.2973 1.61973 98.5241 1.66058 98.751 1.66058C98.751 1.61973 98.751 1.57889 98.9022 1.4972H98.9778C98.9022 1.41551 98.751 1.37466 98.6753 1.29297H98.5997C98.5997 1.21128 98.6753 1.17044 98.6753 1.08875C98.9022 1.08875 99.0534 1.08875 99.2803 1.08875C99.2046 1.0479 99.2046 1.00706 99.3559 0.925368C99.5071 0.843678 99.6583 0.802833 99.8095 0.761988C100.188 0.680298 100.49 0.598608 100.944 0.557763C101.171 0.557763 101.322 0.598608 101.397 0.680298C101.397 0.802833 101.549 0.884523 102.002 0.843678C102.456 1.00706 103.439 0.843678 103.666 1.12959C103.59 1.12959 103.59 1.17044 103.515 1.17044C103.439 1.25213 103.363 1.33382 103.363 1.41551C103.666 1.45635 103.893 1.53804 104.271 1.4972C104.346 1.41551 104.649 1.41551 104.876 1.41551C104.724 1.33382 104.724 1.21128 104.876 1.12959C104.8 1.12959 104.724 1.12959 104.649 1.12959C104.573 1.08875 104.498 1.0479 104.498 1.0479C104.422 1.08875 104.346 1.12959 104.271 1.12959H104.12H103.968C104.044 0.966213 103.666 0.802833 104.271 0.680298C104.422 0.721143 104.498 0.802833 104.573 0.843678C104.573 0.802833 104.649 0.802833 104.649 0.761988C104.951 0.802833 105.027 1.12959 105.632 0.843678C106.01 0.721143 106.312 0.598608 106.917 0.639453C106.993 0.639453 107.144 0.680298 107.22 0.680298C107.371 0.721143 107.447 0.761988 107.447 0.843678C107.447 0.925368 107.371 1.00706 107.371 1.08875C107.447 1.08875 107.522 1.08875 107.522 1.08875C108.127 0.966213 108.883 1.0479 109.564 1.00706C109.866 1.0479 110.169 1.08875 110.547 1.08875C110.622 1.08875 110.698 1.12959 110.774 1.12959C110.849 1.12959 110.925 1.12959 111.076 1.12959C111.227 1.12959 111.454 1.12959 111.605 1.17044C111.757 1.17044 111.908 1.21128 112.135 1.21128C112.513 1.17044 112.891 1.12959 113.269 1.0479C113.496 1.0479 113.722 1.0479 113.874 1.0479C113.949 1.08875 114.025 1.12959 114.176 1.17044C113.722 1.25213 114.327 1.29297 114.252 1.37466C114.63 1.45635 115.084 1.4972 115.537 1.45635C115.764 1.45635 115.915 1.45635 116.142 1.4972C116.52 1.57889 117.049 1.53804 117.276 1.66058C117.352 1.8648 117.654 1.98734 118.032 2.15072C118.108 2.15072 118.184 2.15072 118.259 2.15072C118.335 2.15072 118.411 2.15072 118.411 2.19156C118.335 2.15072 118.259 2.10987 118.184 2.02818C118.108 1.94649 118.184 1.82396 118.411 1.78311C118.789 1.74227 118.713 1.61973 118.713 1.53804H118.637C118.562 1.4972 118.562 1.45635 118.637 1.41551C118.864 1.33382 119.167 1.33382 119.469 1.33382C119.469 1.29297 119.545 1.29297 119.545 1.25213C119.62 1.17044 119.772 1.12959 120.074 1.08875C120.074 1.0479 120.074 1.00706 120.225 0.966213C120.906 0.843678 121.662 0.721143 122.494 0.843678C122.947 0.925368 123.401 0.966213 123.855 1.0479C123.855 1.08875 123.855 1.12959 123.855 1.12959C124.308 1.17044 124.762 1.17044 125.216 1.0479C125.443 1.00706 125.594 1.00706 125.821 0.966213C126.199 1.0479 126.35 1.17044 126.426 1.29297C126.501 1.37466 126.426 1.45635 126.35 1.53804C126.35 1.53804 126.274 1.53804 126.274 1.57889C126.804 1.66058 127.333 1.74227 127.862 1.57889C128.543 1.61973 128.694 1.8648 129.45 1.8648C129.45 1.90565 129.526 1.94649 129.526 1.94649C129.677 2.15072 129.753 2.35494 128.921 2.47748C128.618 2.51832 128.24 2.55917 127.862 2.55917C127.56 2.55917 127.257 2.51832 127.03 2.43663C126.652 2.35494 126.35 2.23241 125.972 2.15072H125.896C125.443 2.19156 125.065 2.15072 124.611 2.10987C123.93 2.19156 124.611 2.3141 124.46 2.39579C124.762 2.47748 123.93 2.80423 125.216 2.72254C125.367 2.72254 125.518 2.72254 125.669 2.72254C126.123 2.80423 126.577 2.84508 127.03 2.80423C127.333 2.76339 127.56 2.76339 127.862 2.76339C128.165 2.80423 128.089 2.88592 128.165 2.92677C128.089 2.96761 127.938 3.00846 127.862 3.00846C126.955 3.0493 125.972 3.13099 125.065 3.09015C125.14 3.09015 125.216 3.09015 125.367 3.09015C125.367 3.13099 125.443 3.17184 125.443 3.17184C125.594 3.37606 125.669 3.58029 124.838 3.70282C124.535 3.74367 124.157 3.78451 123.779 3.78451C123.477 3.78451 123.174 3.74367 122.947 3.66198C122.569 3.58029 122.267 3.45775 121.889 3.37606H121.813C121.359 3.41691 120.981 3.37606 120.528 3.33522C119.847 3.41691 120.528 3.53944 120.376 3.62113C120.679 3.70282 119.847 4.02958 121.133 3.94789C121.284 3.94789 121.435 3.94789 121.586 3.94789C122.04 4.02958 122.494 4.07043 122.947 4.02958C123.25 3.98874 123.477 3.98874 123.779 3.98874C123.93 4.19296 123.855 4.27465 123.93 4.35634ZM81.7379 1.53804C81.9647 1.57889 82.116 1.61973 82.4184 1.61973L82.494 1.57889C82.2672 1.57889 82.0403 1.61973 81.7379 1.53804ZM94.6678 4.02958C94.7434 3.98874 94.819 3.94789 94.8947 3.94789C94.9703 3.90705 95.1215 3.90705 95.1971 3.90705C94.8947 3.8662 94.5922 3.8662 94.3654 3.90705C94.2141 3.94789 94.0629 3.98874 93.9873 3.98874C94.0629 3.98874 94.1385 4.02958 94.1385 4.07043C94.2897 4.07043 94.441 4.02958 94.6678 4.02958ZM50.4338 4.35634C50.1314 4.43803 49.7533 4.51972 49.3752 4.56057C49.6777 4.60141 50.0557 4.64226 50.4338 4.64226C50.2826 4.60141 50.3582 4.51972 50.5094 4.47888C50.3582 4.43803 50.3582 4.39719 50.4338 4.35634ZM122.04 2.88592C122.116 2.88592 122.267 2.92677 122.342 2.92677C122.267 2.88592 122.191 2.84508 122.191 2.84508C122.191 2.84508 122.191 2.84508 122.191 2.88592C122.04 2.88592 122.04 2.88592 122.04 2.88592ZM108.278 2.3141C107.9 2.35494 107.673 2.43663 107.295 2.47748C106.993 2.43663 106.69 2.43663 106.388 2.39579C106.464 2.39579 106.464 2.43663 106.539 2.43663C106.539 2.47748 106.615 2.47748 106.615 2.51832C106.69 2.51832 106.69 2.51832 106.766 2.55917C106.842 2.55917 106.917 2.55917 107.068 2.55917C107.22 2.55917 107.371 2.55917 107.522 2.60001C107.598 2.60001 107.749 2.55917 107.825 2.55917C107.976 2.55917 108.051 2.60001 108.127 2.64085C108.43 2.60001 108.656 2.55917 108.959 2.51832C108.959 2.51832 108.959 2.51832 108.959 2.47748C108.808 2.39579 108.732 2.3141 108.278 2.3141ZM13.0807 2.88592C13.2319 2.88592 13.3831 2.88592 13.5343 2.88592L13.4587 2.84508C13.3075 2.84508 13.1563 2.84508 13.005 2.84508C13.0807 2.84508 13.0807 2.84508 13.0807 2.88592ZM72.9667 4.76479C73.0423 4.76479 73.0423 4.72395 73.1179 4.72395C73.0423 4.76479 73.0423 4.76479 72.9667 4.76479ZM104.724 3.98874H104.8C104.8 3.94789 104.8 3.90705 104.8 3.8662C104.724 3.82536 104.724 3.78451 104.649 3.78451C104.573 3.82536 104.498 3.8662 104.346 3.8662C104.271 3.8662 104.12 3.8662 104.044 3.8662C103.817 3.90705 103.59 3.90705 103.439 3.8662C103.439 3.8662 103.363 3.8662 103.363 3.82536C103.288 3.82536 103.288 3.8662 103.212 3.8662C102.91 3.82536 102.607 3.82536 102.305 3.78451C102.38 3.78451 102.38 3.82536 102.456 3.82536C102.607 3.94789 102.607 4.02958 102.456 4.11127C102.834 4.02958 103.212 3.94789 103.741 3.94789C103.968 3.98874 104.044 3.98874 104.12 4.02958C104.271 4.02958 104.498 4.02958 104.724 3.98874ZM114.252 3.82536C114.479 3.78451 114.63 3.78451 114.932 3.82536C114.932 3.82536 114.932 3.82536 115.008 3.82536C114.705 3.70282 114.403 3.58029 114.252 3.45775C114.252 3.41691 114.252 3.41691 114.252 3.37606C114.176 3.33522 114.176 3.25353 114.252 3.17184C114.025 3.13099 113.874 3.09015 113.647 3.09015C113.571 3.13099 113.496 3.21268 113.42 3.25353C113.571 3.37606 113.798 3.4986 114.101 3.58029C114.252 3.66198 114.327 3.74367 114.252 3.82536ZM95.0459 1.17044C95.2727 1.21128 95.5752 1.25213 95.8776 1.21128C95.5752 1.17044 95.2727 1.17044 95.0459 1.17044ZM87.4845 1.0479L87.5601 1.08875C87.6357 1.17044 87.5601 1.25213 87.4089 1.33382C87.8626 1.33382 88.0138 1.41551 88.0138 1.53804C88.0894 1.53804 88.165 1.53804 88.165 1.53804C88.3163 1.53804 88.4675 1.57889 88.5431 1.61973C88.5431 1.57889 88.6187 1.57889 88.77 1.53804C88.9968 1.4972 89.2236 1.4972 89.4505 1.4972C89.4505 1.4972 89.4505 1.4972 89.4505 1.45635C89.2236 1.41551 89.0724 1.33382 89.2236 1.25213C89.148 1.29297 88.9968 1.29297 88.9968 1.25213C88.6943 1.00706 88.0894 1.00706 87.4845 1.0479ZM69.5641 4.80564C69.4885 4.80564 69.4885 4.76479 69.4885 4.76479C69.3372 4.76479 69.186 4.76479 69.1104 4.76479C69.186 4.76479 69.4128 4.80564 69.5641 4.80564ZM104.649 4.51972C104.649 4.47888 104.649 4.47888 104.649 4.43803C104.422 4.43803 104.271 4.39719 104.044 4.35634C104.195 4.43803 104.195 4.51972 104.044 4.60141C104.195 4.56057 104.346 4.51972 104.649 4.51972ZM139.96 2.80423C140.036 2.80423 140.036 2.80423 140.112 2.80423C140.112 2.72254 140.112 2.6817 140.112 2.60001C139.96 2.43663 139.809 2.27325 139.355 2.19156C139.28 2.15072 139.129 2.15072 138.977 2.10987C138.599 2.06903 138.297 1.98734 138.07 1.8648C137.843 1.74227 137.919 1.57889 137.465 1.4972C137.692 1.33382 137.541 1.25213 137.087 1.12959C137.011 1.12959 136.936 1.12959 136.86 1.12959C136.86 1.25213 136.709 1.41551 136.482 1.4972C136.407 1.4972 136.331 1.4972 136.18 1.4972C135.726 1.57889 135.575 1.74227 135.197 1.82396C134.819 1.94649 134.516 2.06903 134.667 2.23241C134.97 2.35494 135.197 2.47748 135.575 2.55917C135.197 2.60001 135.197 2.72254 134.97 2.80423C135.197 2.88592 135.424 2.92677 135.65 3.00846H135.802H135.953C136.028 2.96761 136.18 2.92677 136.255 2.92677C136.407 2.76339 135.877 2.6817 135.65 2.60001C135.877 2.64086 136.104 2.64085 136.407 2.64085C136.709 2.60001 136.936 2.51832 137.39 2.55917C137.616 2.60001 137.768 2.6817 137.994 2.6817C138.07 2.6817 138.221 2.72254 138.297 2.72254C138.07 2.72254 137.768 2.72254 137.541 2.76339C137.541 2.80423 137.541 2.80423 137.541 2.84508C137.541 2.92677 137.616 3.00846 137.843 3.0493C138.07 3.0493 138.297 3.0493 138.448 3.0493C138.977 2.92677 139.885 3.00846 139.96 2.80423ZM145.858 2.72254C145.858 2.55917 145.556 2.43663 145.102 2.35494C144.573 2.27325 144.119 2.19156 143.514 2.23241C143.363 2.23241 143.212 2.27325 143.136 2.3141C142.985 2.35494 142.834 2.43663 142.758 2.47748C143.212 2.55917 143.59 2.6817 143.514 2.84508C144.044 3.00846 144.648 2.92677 145.178 2.88592C145.48 2.88592 145.707 2.84508 145.858 2.72254ZM140.49 2.88592C140.49 2.92677 140.49 2.92677 140.49 2.96761C140.565 3.00846 140.641 3.00846 140.792 3.00846C141.17 3.00846 141.473 3.17184 141.851 3.00846C141.473 2.84508 140.943 2.88592 140.49 2.88592ZM139.96 1.70142H140.112C140.187 1.66058 140.338 1.61973 140.414 1.61973C140.565 1.45635 139.96 1.37466 139.734 1.25213C139.355 1.29297 139.355 1.41551 139.129 1.53804C139.355 1.61973 139.582 1.66058 139.809 1.74227L139.96 1.70142ZM150.622 1.98734C150.546 1.94649 150.471 1.90565 150.395 1.90565C150.093 1.8648 149.866 1.90565 149.639 1.98734C149.563 2.02818 149.563 2.06903 149.488 2.10987C149.488 2.15072 149.563 2.19156 149.715 2.19156C150.093 2.27325 149.563 2.43663 150.017 2.47748C150.319 2.51832 150.622 2.55917 151 2.55917C151 2.47748 151 2.43663 151 2.35494C150.773 2.27325 150.849 2.10987 150.622 1.98734ZM144.044 1.41551C143.59 1.41551 143.136 1.41551 142.758 1.41551C142.456 1.41551 142.153 1.41551 141.775 1.45635C141.775 1.4972 141.775 1.4972 141.775 1.53804C141.775 1.61973 141.851 1.70142 142.078 1.74227C142.304 1.74227 142.531 1.74227 142.682 1.74227C143.061 1.57889 143.968 1.66058 144.044 1.41551Z" fill="#0171F1"></path></svg>